<?xml version="1.0" encoding="UTF-8" standalone="no"?>
<!-- Created with Inkscape (http://www.inkscape.org/) -->

<svg
   version="1.1"
   id="svg1"
   width="1231.053"
   height="709.39551"
   viewBox="0 0 1231.0529 709.39551"
   xmlns="http://www.w3.org/2000/svg"
   xmlns:svg="http://www.w3.org/2000/svg">
  <defs
     id="defs1" />
  <g
     id="g1"
     transform="translate(253.70288,929.29669)">
    <g
       id="g44"
       transform="translate(-274.95648,-942.76167)">
      <path
         style="fill:#de916f"
         d="m 440.5596,656.02626 c -0.78867,-0.78867 -1.16773,-11.49757 -0.95571,-27 0.19326,-14.1311 0.36145,-26.44291 0.37376,-27.35957 0.0345,-2.56871 25.65078,-2.27206 30.73269,0.3559 6.80931,3.52123 10.11329,14.12247 6.50352,20.86739 -1.2116,2.26389 -0.82415,3.37086 2.33333,6.66656 4.76277,4.97125 5.24767,13.62375 1.0766,19.21045 -5.00752,6.70702 -10.50679,8.56636 -25.33629,8.56636 -7.38144,0 -14.009,-0.58819 -14.7279,-1.30709 z m 27.38727,-13.96219 c 4.02021,-4.84405 -3.27378,-10.19267 -11.19029,-8.20575 -2.85524,0.71662 -3.42322,1.62924 -3.42322,5.50044 v 4.64126 h 6.50341 c 4.05857,0 7.10741,-0.72778 8.1101,-1.93595 z m -3.35026,-23.02888 c 1.47088,-3.83303 -4.12349,-6.82298 -9.1542,-4.89252 -2.12519,0.81551 -2.86833,4.65362 -1.22016,6.30179 1.91515,1.91515 9.49371,0.88567 10.37436,-1.40927 z m 42.37506,37.18153 c -1.30061,-0.82548 -1.61087,-7.41359 -1.33333,-28.31292 l 0.36169,-27.23712 5.86786,-0.41982 c 3.79191,-0.2713 6.26116,0.20041 6.97958,1.33333 1.83238,2.88961 1.42428,52.28144 -0.44744,54.15316 -1.81061,1.81062 -8.86692,2.10907 -11.42836,0.48337 z m 47.98014,-1.71428 c -6.96485,-3.44753 -13.09556,-11.931 -14.98101,-20.73021 -2.53737,-11.84162 4.05617,-25.67756 14.86433,-31.19147 17.25121,-8.80091 36.25722,-0.49411 42.00581,18.35914 3.91803,12.84968 -2.74797,27.14153 -15.78779,33.8489 -6.85961,3.52841 -18.65602,3.39899 -26.10134,-0.28636 z m 22.38156,-14.42742 c 10.10064,-7.05944 6.16808,-23.37637 -6.27084,-26.01882 -10.14734,-2.15565 -19.18741,7.57666 -16.45688,17.71707 2.93179,10.88785 13.50282,14.74913 22.72772,8.30175 z m 50.0623,15.66893 c -1.26598,-3.80671 -1.96395,-13.08459 -2.01194,-26.74393 l -0.0504,-14.33333 h -5.06666 c -2.78667,0 -5.78667,-0.72 -6.66667,-1.6 -2.43398,-2.43399 -2.05292,-12.60756 0.50905,-13.59069 1.15998,-0.44512 9.4453,-0.80932 18.41183,-0.80932 19.24527,0 21.21909,0.83647 20.57631,8.71985 -0.42315,5.18976 -0.53324,5.29157 -6.43052,5.94682 l -6,0.66667 -0.66667,21.33333 -0.66667,21.33334 -5.67886,0.41059 c -3.79292,0.27424 -5.87148,-0.16856 -6.25884,-1.33333 z m 47.57429,0.026 c -2.29322,-2.29322 -2.32679,-53.21305 -0.0366,-55.50326 1.85693,-1.85693 32.65146,-2.24521 35.48649,-0.44743 1.13293,0.71842 1.60464,3.18767 1.33334,6.97958 l -0.41983,5.86786 -11.66667,0.38524 -11.66667,0.38524 v 4.55114 4.55113 l 8.33334,0.39696 8.33333,0.39695 v 6 6 l -8.21391,0.39386 c -6.00195,0.28779 -8.43179,0.96165 -9.023,2.50233 -1.65313,4.30799 1.76156,5.77048 13.47323,5.77048 h 11.24313 l -0.40639,6.33333 -0.40639,6.33334 -17.36341,0.36992 c -12.3733,0.26361 -17.83376,-0.10042 -19.00001,-1.26667 z m 73.03009,-0.19414 c -7.48985,-3.91223 -10.93533,-6.89271 -13.98577,-12.09827 -7.27047,-12.40701 -5.55379,-25.39827 4.7128,-35.66486 10.118,-10.118 23.11959,-11.5233 35.6063,-3.84858 5.40981,3.32503 5.48129,6.43721 0.26268,11.43695 -4.03485,3.86564 -4.10617,3.87956 -8.10805,1.58279 -13.53204,-7.76632 -27.44577,4.22795 -20.49558,17.66813 1.09581,2.11907 3.32932,4.78927 4.96334,5.93379 3.83732,2.68775 11.61565,2.66599 15.48374,-0.0433 2.83443,-1.98531 3.33536,-1.9199 7.65781,1 6.51668,4.40214 5.6433,7.57598 -3.33636,12.12427 -8.00822,4.05624 -17.17784,4.82536 -22.76091,1.90911 z m 53.46787,-0.0803 c -1.06022,-1.27748 -1.41492,-9.91694 -1.16326,-28.33333 l 0.36206,-26.49544 5.86785,-0.41982 c 7.26844,-0.52004 8.0853,0.62994 8.11173,11.41983 l 0.0204,8.33333 h 8.66667 8.66666 l 0.0204,-8.33333 c 0.0264,-10.78989 0.84329,-11.93987 8.11173,-11.41983 l 5.86785,0.41982 0.36207,26.49544 c 0.25166,18.41639 -0.10305,27.05585 -1.16326,28.33333 -2.16099,2.60383 -11.36354,2.40243 -12.38949,-0.27115 -0.44512,-1.15997 -0.80932,-6.25997 -0.80932,-11.33333 v -9.22428 h -8.66666 -8.66667 v 9.73333 c 0,5.79259 -0.64779,10.38113 -1.6,11.33333 -2.17845,2.17845 -9.72182,2.02373 -11.5988,-0.2379 z M 325.33335,628.00002 c -1.1,-0.71088 -10.157,-1.30169 -20.12668,-1.31292 -16.29415,-0.0183 -18.36574,-0.28457 -20.49136,-2.63335 -3.24865,-3.58972 -1.74301,-9.06203 2.98861,-10.86226 1.99619,-0.75948 10.82943,-1.25506 19.62943,-1.10128 8.8,0.15379 17.5,-0.31613 19.33334,-1.04425 4.73692,-1.88129 46.02397,-2.13152 51.53614,-0.31234 7.63177,2.51871 9.44845,9.73636 3.8578,15.32701 -3.25019,3.25018 -3.44991,3.27258 -29,3.25231 -14.3067,-0.0114 -26.61509,-0.59417 -27.72728,-1.31292 z m 568.07852,-1.25486 c -3.93373,-3.93373 -4.08765,-9.64164 -0.37202,-13.79612 1.95077,-2.18118 4.46795,-2.33522 29.54633,-1.80809 15.07763,0.31692 34.33511,0.59611 42.79439,0.62042 8.45929,0.0243 17.05304,0.46398 19.09724,0.97704 4.94087,1.24008 7.01249,6.47276 4.2386,10.70625 -2.22849,3.4011 -1.93064,3.37757 -66.97121,5.29234 -24.57899,0.7236 -25.69645,0.64504 -28.33333,-1.99184 z M 570.6667,575.79069 c -8.24521,-1.76197 -278.39168,-3.88115 -366.13367,-2.87215 l -70.80033,0.81417 -2.86635,-2.86635 c -3.51127,-3.51127 -3.69393,-8.70542 -0.42123,-11.97813 2.33056,-2.33055 9.30652,-2.48673 148.88754,-3.33333 222.20068,-1.34771 272.26584,-1.1516 288.00071,1.12814 20.06961,2.90778 118.47118,2.79731 134.82535,-0.15135 10.66771,-1.9234 32.91907,-2.0507 224.50801,-1.28439 l 212.66667,0.85062 3,3.35873 c 3.7825,4.23475 3.7802,6.5511 -0.01,10.34154 l -3.0103,3.0103 -207.32304,0.28228 c -141.67119,0.19289 -211.54524,0.75262 -220.65638,1.76757 -17.01541,1.89546 -132.57552,2.6614 -140.66668,0.93235 z m 11.67501,-39.84624 c -10.59489,-1.63217 -25.11465,-6.87907 -32.94967,-11.90678 -11.33879,-7.27609 -23.28597,-21.23815 -30.02239,-35.08568 -3.31996,-6.82456 -6.03628,-13.16041 -6.03628,-14.07968 0,-0.91926 -0.93841,-3.48608 -2.08536,-5.70403 l -2.08536,-4.03263 -10.91464,0.76781 c -6.00306,0.42229 -27.71465,1.11068 -48.24798,1.52975 -20.53334,0.41907 -37.90334,1.31804 -38.6,1.99771 -0.77855,0.75955 12.72548,1.23576 35.04282,1.23576 28.51728,0 37.29161,0.41036 40.88588,1.91214 5.54116,2.31524 7.3839,7.50895 4.49258,12.66214 l -1.92209,3.42572 -175.28294,1.0858 c -123.00854,0.76199 -179.21428,0.65802 -188.46526,-0.34863 -14.56665,-1.58507 -33.328984,-7.27064 -44.817681,-13.58115 -6.903158,-3.79177 -7.098692,-3.82762 -3.333334,-0.61121 5.065985,4.32743 17.342445,10.2701 29.349495,14.20723 11.1985,3.672 4.27141,3.51901 229.73224,5.07361 155.81354,1.07437 156.42569,1.08916 159.18182,3.84529 1.87059,1.87059 2.76677,4.48073 2.76677,8.05827 0,5.2705 0.0241,5.29481 6.07606,6.12432 10.75746,1.47447 15.91946,10.39176 9.42013,16.27316 -2.73314,2.47328 -7.90652,2.53998 -197.00001,2.53998 -180.80165,0 -194.77492,-0.16082 -202.62929,-2.33208 C 79.501255,519.21643 53.678924,499.8641 38.749824,471.93326 33.8447,462.75626 27.569667,444.10135 24.644555,430.00001 22.300422,418.69944 20.206376,367.33835 21.82658,360.88295 c 1.004105,-4.00068 7.728662,-8.08206 11.397549,-6.9176 5.10044,1.61882 6.463936,5.14411 7.945955,20.54415 0.803261,8.34688 2.418934,19.14688 3.590385,24 2.881976,11.93952 13.829571,34.24594 20.114908,40.9854 l 5.124627,5.49489 20.000002,0.82227 c 11.000004,0.45225 85.100004,1.133 164.666674,1.51277 79.56667,0.37978 169.3902,1.047 199.60785,1.48272 l 54.94116,0.79221 0.75927,-3.1332 c 0.4176,-1.72327 0.59408,-49.93321 0.39217,-107.13322 l -0.3671,-104 -88.66667,-0.32177 c -48.76667,-0.17698 -142.06668,0.17706 -207.33335,0.78673 l -118.666671,1.10851 -10.666667,3.77062 c -8.716989,3.08141 -12.142447,5.18503 -18.740642,11.50889 -14.87237,14.25401 -24.350426,35.44551 -24.515833,54.81369 -0.06111,7.15523 -0.623461,9.5466 -2.743528,11.66667 -3.228008,3.228 -8.964759,3.44313 -13.175151,0.49405 -3.064319,-2.14633 -3.094399,-2.41643 -2.487175,-22.33333 0.742635,-24.35837 3.386324,-35.61005 12.882222,-54.82739 16.78112,-33.96084 47.417041,-56.00559 87.113425,-62.68438 10.80388,-1.81772 33.63654,-2.02796 184.118,-1.69534 l 171.78466,0.37972 2.54869,3.14771 c 3.22243,3.9798 3.27309,9.78342 0.11037,12.64564 -2.24244,2.02937 -16.40835,2.20805 -176.33334,2.22416 -167.02975,0.0168 -174.3951,0.11997 -186.5617,2.61257 -16.86102,3.45435 -31.859531,11.07149 -44.081668,22.38732 -11.599055,10.73894 -14.754469,15.99002 -4.675344,7.78046 14.356838,-11.69381 29.207857,-20.01243 43.875252,-24.57621 6.03238,-1.87699 19.30665,-2.17049 107.54844,-2.37801 55.36667,-0.1302 142.589,0.15171 193.82741,0.62648 l 93.16073,0.86321 1.1726,-3.0868 c 0.64494,-1.69774 1.17261,-25.27754 1.17261,-52.39955 0,-54.009921 -0.065,-53.522789 8.05487,-60.355222 2.28286,-1.920899 5.60441,-3.857413 7.38123,-4.303365 3.87229,-0.971885 4.02098,-2.301474 0.78087,-6.982573 -7.98596,-11.537571 -8.05195,-30.969937 -0.14751,-43.433951 4.58394,-7.228126 12.31515,-13.059788 22.2334,-16.770679 7.15841,-2.678305 9.36306,-2.742054 82.1931,-2.376662 L 706.00005,14 l 6.72752,3.551055 c 15.34672,8.100606 23.80178,21.042999 23.88717,36.564733 0.0446,8.098735 -0.5649,10.645595 -4.2645,17.821267 -4.15909,8.066885 -4.50587,10.729614 -1.39736,10.729614 0.80417,0 3.46939,1.531016 5.92271,3.402258 8.3458,6.36565 8.45779,7.033694 8.45779,50.452843 0,29.9925 0.3954,39.57676 1.66667,40.39955 0.91666,0.59328 92.26667,1.07869 203.00001,1.07869 h 201.33334 l 10.1952,2.91012 c 31.4302,8.97145 53.9386,24.85798 69.4322,49.00556 13.422,20.91883 19.0269,39.10556 20.5177,66.57542 0.8934,16.46331 -0.079,20.76028 -5.5016,24.31336 -3.2303,2.11659 -3.7964,2.12421 -8.0245,0.10799 -5.2059,-2.48251 -5.4909,-3.38644 -6.5284,-20.70797 -1.0376,-17.32247 -7.1268,-29.75724 -22.9311,-46.8278 -9.0003,-9.72144 -8.9604,-9.69804 -23.9724,-14.04834 l -11.8143,-3.42366 -212.54074,-0.72742 c -176.10025,-0.6027 -212.73363,-0.42308 -213.66597,1.04766 -1.50036,2.36675 -1.49523,206.7342 0.005,210.68828 1.16937,3.08145 1.20346,3.08532 19.66667,2.23152 10.1724,-0.47041 70.09528,-0.95788 133.16195,-1.08327 63.06667,-0.12538 156.78529,-0.70097 208.26369,-1.27908 82.4099,-0.92548 93.9865,-1.30624 96.8548,-3.18566 3.8107,-2.49685 14.4083,-18.01418 18.2791,-26.76474 4.6716,-10.56084 8.0514,-26.33138 8.8907,-41.48445 0.7589,-13.70125 1.0505,-14.89144 4.4924,-18.33334 4.5913,-4.59133 8.355,-4.66641 12.7667,-0.25466 l 3.4262,3.42618 -0.6919,30.90715 c -0.5539,24.74117 -1.2405,33.24603 -3.4412,42.63082 -3.9143,16.692 -9.5798,32.43237 -15.4546,42.93748 -11.1484,19.93525 -37.1694,40.90759 -59.5126,47.9658 -24.023,7.58887 -17.0483,7.36417 -228.72557,7.3688 -187.38083,0.004 -194.96874,-0.09 -197.88891,-2.45463 -3.57161,-2.89212 -4.11674,-9.92128 -1.01034,-13.02769 1.11444,-1.11444 4.36444,-2.8329 7.22222,-3.81881 3.3876,-1.16868 5.24327,-2.64559 5.33189,-4.24358 0.0748,-1.34807 0.22476,-3.78563 0.33333,-5.41679 0.49311,-7.40801 -8.23325,-7.03669 198.57605,-8.44964 206.66423,-1.41195 200.91623,-1.17979 220.25493,-8.89622 9.299,-3.71045 19.3781,-9.28127 26.454,-14.62131 7.9252,-5.98097 3.391,-4.78624 -8.5076,2.2417 -13.8905,8.20453 -31.092,14.22919 -46.2067,16.18344 -7.687,0.99389 -66.7204,1.14619 -194.37325,0.50147 -183.04738,-0.92451 -183.33803,-0.93026 -186.33335,-3.69224 -3.85002,-3.55009 -3.79238,-6.56396 0.21471,-11.22709 l 3.21471,-3.74102 21.78529,-0.68434 c 11.98191,-0.37639 20.2853,-1.10665 18.45196,-1.6228 -3.45992,-0.9741 -29.54041,-2.35071 -52.65388,-2.77923 l -13.32055,-0.24697 -4.78831,13.5765 c -9.66191,27.39478 -25.24185,43.98986 -50.24853,53.52255 -8.957,3.41445 -9.15116,3.42761 -54.98874,3.72586 -25.3,0.16462 -49.44625,-0.23159 -53.65833,-0.88047 z m -29.3355,-37.6111 c -7.90394,-9.72163 -13.00095,-21.70486 -13.89789,-32.67436 -0.6898,-8.43615 -0.52004,-9.19223 2.74488,-12.22473 4.20589,-3.90648 4.51187,-9.09636 0.8135,-13.79807 -2.61856,-3.32897 -2.66667,-5.40905 -2.66667,-115.3065 0,-110.22306 0.0403,-111.9529 2.66667,-114.32968 3.18949,-2.88645 3.48263,-8.99357 0.57143,-11.90477 -3.10996,-3.10996 -9.3643,-2.65097 -11.82916,0.86811 -2.76529,3.94801 -2.61615,6.65651 0.59106,10.73382 2.61857,3.32896 2.66667,5.40904 2.66667,115.3065 0,110.22305 -0.0403,111.95289 -2.66667,114.32968 -3.34249,3.02491 -3.42657,8.31714 -0.18926,11.91406 1.69837,1.88704 2.89608,6.35707 3.80885,14.21526 1.63876,14.10817 6.00283,24.10976 14.46961,33.16143 8.24172,8.81106 10.16142,8.61972 2.91698,-0.29075 z m 34.96827,-47.33334 c -3.07204,-3.48333 -7.17303,-9.33333 -9.11332,-13 l -3.52779,-6.66666 c -3.50421,1.4599 -1.59273,-202.17597 -1.59273,-202.17597 l -0.39168,-43.0229 84.28403,-2.95189 c -1.28692,0.0451 33.03376,-1.28091 33.03376,-3.90967 0,-1.64095 -4.77289,-1.94307 -31,-1.96224 -17.05,-0.0125 -42.4,-0.16192 -56.33334,-0.33212 -13.93333,-0.1702 -36.88333,-0.16 -51,0.0227 -21.56865,0.27909 -25.66667,0.64575 -25.66667,2.29647 0,1.6248 3.39964,2.02814 19.66667,2.33334 l 19.66667,0.36898 0.90117,6 c 0.49564,3.3 0.94564,57.46892 1,120.37539 0.0968,111.97073 0.15686,114.54972 2.85899,122.66667 3.42333,10.28339 8.33922,17.61166 15.10656,22.51982 7.65304,5.55055 8.42971,4.60653 2.10772,-2.56188 z m 52.12933,-118.45842 c -612.777643,520.42518 -612.777643,520.42518 0,0 z m -4.41168,-29.84227 c 4.7271,-8.60634 8.76451,-12.13291 20.76304,-18.13596 8.14987,-4.07751 18.6487,-14.32247 20.00657,-19.5228 0.57249,-2.19252 -0.96165,-1.10725 -5.50055,3.89115 -4.62576,5.09404 -9.52762,8.52566 -18.48997,12.94415 -10.54882,5.20063 -13.02423,7.10218 -18.33333,14.08319 -5.75426,7.56634 -7.33632,11.73138 -5.24896,13.81874 1.66636,1.66636 2.44503,0.85619 6.8032,-7.07847 z m -3.96537,-33.69931 c 3.88336,-8.73875 9.40265,-14.34999 18.21594,-18.51943 4.43154,-2.09649 8.80734,-3.81228 9.72401,-3.81285 0.91667,-5.8e-4 1.66667,-0.58606 1.66667,-1.30106 0,-2.95485 -16.27471,1.72798 -22.54159,6.48604 -4.74338,3.60136 -10.75632,14.65464 -10.77872,19.81396 -0.0189,4.36128 0.87624,3.71848 3.71369,-2.66666 z m 548.27334,-60.40339 c 0,-0.40519 -3.8026,-2.51614 -8.4501,-4.69099 -17.4969,-8.18779 -8.0213,-7.85713 -225.88327,-7.88247 -188.65145,-0.022 -198.99895,0.0982 -198.9796,2.31018 0.0112,1.28333 0.46123,2.95807 1,3.72165 0.67231,0.95283 30.8832,1.13857 96.31292,0.59214 52.43334,-0.4379 144.53335,-0.76264 204.66665,-0.72165 l 109.3334,0.0745 10.6666,3.50599 c 5.8667,1.9283 10.8167,3.5783 11,3.66667 0.1834,0.0884 0.3334,-0.17085 0.3334,-0.57605 z M 543.37789,136.33334 c 1.15951,-1.28334 0.97553,-29.41033 0.97553,-29.41033 l 5.69434,0.0172 11.74298,0.37502 19.24942,-0.31283 c 0,0 72.02699,-2.94607 112.54786,-2.97712 32.03788,-0.0245 38.20656,-0.80301 32.91618,-4.153881 -1.01062,-0.640115 -45.41402,-1.173033 -98.67423,-1.184262 -102.40637,-0.02159 -98.26135,0.650062 -98.42554,5.979583 -0.0487,1.58058 0.63013,4.34637 1.01936,4.4201 l 0.046,0.009 0.33122,-0.26982 c 0,0 1.98188,0.50767 3.27568,0.50767 1.05783,0 1.94474,0.15 1.9709,0.33333 0.0262,0.18333 0.56706,6.145 1.20199,13.24815 0.63494,7.10314 1.54895,13.55314 2.03113,14.33333 1.34043,2.16885 1.74348,1.69024 4.09717,-0.91481 z M 564.10408,35.946372 c 9.73207,0.324333 137.54343,0.183974 138.21516,-0.487756 2.2935,-2.293501 -11.2359,-2.791948 -75.78203,-2.791948 -79.67566,0 -69.18923,-0.387151 -77.83729,3.573211 0,0 11.45288,-0.425188 15.40416,-0.293507 z M 120.54714,442.57121 c -8.93102,-2.14598 -19.43112,-9.24994 -24.195678,-16.36986 -5.317975,-7.94693 -7.274998,-14.88196 -6.752382,-23.92817 l 0.400926,-6.93983 h 11.333334 11.33333 l 0.70782,7.33333 c 0.3893,4.03333 1.47759,8.71544 2.41843,10.40468 4.21006,7.55902 16.97204,10.55494 26.23589,6.15896 6.62194,-3.14232 8.63787,-8.68868 8.63787,-23.76515 v -12.79849 l -13,-0.009 c -7.15,-0.005 -17.07449,-0.39426 -22.05442,-0.86456 l -9.05442,-0.85507 0.38775,-9.46878 0.38775,-9.46878 7.33333,-0.36984 c 4.03334,-0.20342 8.14152,-0.65692 9.1293,-1.00777 1.06183,-0.37716 -2.48083,-3.69307 -8.66667,-8.11195 -15.752914,-11.25317 -21.632184,-16.32616 -23.816648,-20.55044 -1.559605,-3.01595 -1.97909,-9.56689 -1.978261,-30.89379 l 0.0011,-27.06621 3.836865,-8 c 4.573543,-9.536 10.443354,-15.4351 19.494364,-19.59163 5.38785,-2.47429 8.96854,-3.06067 18.66667,-3.05691 10.4044,0.004 13.0037,0.49612 19.54849,3.70085 8.70538,4.26268 16.19739,11.95545 20.24208,20.78448 2.44271,5.33213 2.91688,9.46556 3.51644,30.65309 l 0.69299,24.48988 6,5.34608 c 3.30001,2.94035 14.40001,12.0718 24.66667,20.29211 21.97146,17.5921 29.65796,24.86226 30.67571,29.01417 0.40912,1.669 0.57446,16.53455 0.36741,33.03455 l -0.37645,30 -10.33333,0.38942 -10.33334,0.38942 -0.0937,-26.38942 c -0.0515,-14.51418 -0.51131,-27.44489 -1.02171,-28.73492 -0.5104,-1.29002 -13.80644,-12.70798 -29.54675,-25.37325 -15.74031,-12.66526 -29.98053,-25.04852 -31.64495,-27.51835 -2.88322,-4.2784 -3.02645,-5.6941 -3.0312,-29.96008 -0.004,-22.90894 -0.26664,-25.89863 -2.6077,-29.73809 -6.96236,-11.41865 -25.35804,-11.15198 -32.98154,0.47811 -2.06128,3.14461 -2.40578,6.67315 -2.40578,24.64121 v 20.97106 l 4,4.23496 c 2.2,2.32923 12.1,10.4225 22.00001,17.98503 26.59159,20.31311 32.98696,26.38824 34.77981,33.03829 0.91336,3.38781 1.28871,12.40874 0.95368,22.91994 -0.61986,19.44753 -2.45079,24.92126 -11.48717,34.34192 -8.41616,8.77406 -28.37067,13.5921 -42.36586,10.22928 z m 692.40971,-1.82079 c -10.55088,-3.76413 -17.76939,-10.78261 -22.0787,-21.46689 -1.2362,-3.06498 -1.54158,-21.70891 -1.25576,-76.66667 l 0.37766,-72.61685 3.6157,-6.15047 c 4.24072,-7.21363 11.5896,-14.01116 18.28733,-16.91531 7.09057,-3.07449 22.01502,-2.75167 29.5495,0.63916 8.05898,3.62687 15.47039,11.20791 19.44538,19.89043 2.69145,5.8789 3.1535,8.73131 2.82642,17.44864 l -0.39099,10.42088 h -10.66667 -10.66667 l -0.72429,-10.19785 c -0.97918,-13.7864 -5.62165,-19.71968 -15.47092,-19.7725 -4.67763,-0.0251 -6.16545,0.69575 -9.66666,4.68341 l -4.13813,4.71306 v 68.01983 c 0,58.06142 0.29483,68.58995 2.0138,71.91408 2.42679,4.69288 5.73982,6.63998 11.29809,6.63998 9.73661,0 16.02145,-7.31864 16.02145,-18.65685 0,-4.57953 0.52456,-5.60859 3.42013,-6.70949 4.92004,-1.87059 14.32665,-1.60028 17.19075,0.494 2.08385,1.52375 2.35006,3.08794 1.76532,10.37255 -1.15322,14.36669 -9.57008,27.0495 -21.69983,32.69804 -7.73929,3.604 -20.8281,4.1531 -29.05291,1.21882 z m -541.65528,-1.02729 c -0.36195,-0.94771 -0.50286,-45.22312 -0.31315,-98.38979 l 0.34493,-96.66667 h 10.66667 10.66667 l 0.35442,37.00001 c 0.19493,20.35 0.79493,36.99596 1.33333,36.99102 0.5384,-0.005 4.22094,-8.55494 8.18343,-19 11.10899,-29.28319 20.34311,-52.15196 21.80089,-53.99103 1.80222,-2.27361 21.89246,-2.3064 22.64894,-0.037 0.29878,0.89634 -2.44428,8.84634 -6.09569,17.66667 -8.53488,20.61685 -25.90254,67.32906 -28.36564,76.29246 l -1.90218,6.92215 8.54769,23.74452 c 4.70122,13.05948 12.55926,33.86604 17.4623,46.23679 5.45269,13.75753 8.4363,22.97059 7.68293,23.72397 -0.67744,0.67743 -6.2687,1.05591 -12.42504,0.84106 l -11.19334,-0.39064 -12.68269,-32.31245 c -6.97548,-17.77185 -13.12202,-32.32185 -13.65898,-32.33333 -0.53697,-0.0115 -1.13697,14.52911 -1.33334,32.31245 l -0.35703,32.33333 -10.35352,0.38978 c -7.52669,0.28336 -10.5332,-0.0807 -11.0116,-1.33333 z m 116.25401,0.72133 c -0.48889,-0.48889 -0.88889,-37.96638 -0.88889,-83.28332 0,-79.44891 0.0965,-82.65222 2.69802,-89.60553 5.26665,-14.07638 17.12225,-22.18636 33.96865,-23.23669 13.01417,-0.81139 22.45768,2.83235 30.48757,11.76351 10.51027,11.68996 10.1791,8.36467 10.1791,102.20902 v 83.14974 l -11,-0.38725 -11,-0.38726 -0.0429,-48.66667 c -0.0236,-26.76667 -0.17357,-63.88725 -0.33333,-82.4902 l -0.29048,-33.82353 -5.17647,-5.17647 c -4.49312,-4.49312 -5.97573,-5.17647 -11.23103,-5.17647 -7.79685,0 -13.5967,4.58938 -15.70928,12.43067 -1.08447,4.02521 -1.22845,26.66083 -0.51933,81.64219 0.53964,41.84007 0.56309,77.39007 0.0521,79 -0.84431,2.66016 -1.81269,2.92715 -10.61697,2.92715 -5.32836,0 -10.08793,-0.4 -10.57682,-0.88889 z m 520.05289,0.0529 c -0.51796,-0.51796 -0.94175,-37.33487 -0.94175,-81.81535 0,-70.76445 0.26769,-81.65919 2.14147,-87.15845 3.09425,-9.08112 13.23986,-19.59274 23.46989,-24.31661 7.29358,-3.36791 9.95515,-3.87346 20.38865,-3.8727 10.19164,7.4e-4 13.13484,0.53279 19.53061,3.53062 9.58948,4.49477 17.77574,12.6807 22.27211,22.27123 l 3.53061,7.53062 0.38782,41.82715 0.38781,41.82716 11.61221,-0.58833 c 16.943,-0.85842 25.4897,-5.91459 30.2485,-17.89481 1.8296,-4.60603 2.1166,-10.00114 1.7733,-33.33333 -0.3962,-26.92683 -0.5144,-27.98471 -3.6103,-32.32549 -4.9039,-6.87575 -14.668,-10.81687 -26.8379,-10.83266 l -10.0385,-0.013 -8.29479,-8.36921 c -11.68852,-11.79334 -11.40672,-12.42456 6.03852,-13.52606 33.89667,-2.14025 52.42107,6.21775 62.78617,28.32841 3.5193,7.50736 3.5471,7.808 3.5406,38.23353 -0.01,30.65516 -0.01,30.66944 -3.6279,38.04676 -1.9918,4.05905 -5.417,9.10042 -7.6117,11.20304 l -3.9903,3.82295 5.002,4.85426 c 9.3733,9.09652 10.1804,12.21501 10.6718,41.2346 0.2405,14.20555 0.079,27.25555 -0.3588,29 -0.7535,3.00243 -1.3535,3.17173 -11.2416,3.17173 h -10.4456 l -0.8624,-10.20117 c -0.4742,-5.61065 -0.8623,-17.33792 -0.8623,-26.06061 0,-15.06064 -0.1648,-16.02428 -3.2727,-19.13216 -3.1636,-3.16364 -3.8961,-3.27273 -21.974,-3.27273 h -18.70126 l -0.35934,29 -0.35934,29 -10.55089,0.39334 c -7.5305,0.28073 -10.87218,-0.10096 -11.67321,-1.33334 -0.61727,-0.94967 -1.07205,-14.02667 -1.01061,-29.06 l 0.1117,-27.33333 -23.41241,-0.364 -23.4124,-0.36399 -0.35943,29.03066 -0.35942,29.03066 -9.39158,0.38619 c -5.16537,0.21241 -9.81537,-0.0376 -10.33334,-0.55555 z m 67.11556,-82.64803 c 1.3018,-3.424 0.61525,-66.98847 -0.82241,-76.14337 -0.79181,-5.04219 -5.99079,-11.66075 -11.3275,-14.42047 -2.07623,-1.07366 -6.95476,-1.94224 -10.84118,-1.93017 -9.44552,0.0293 -16.54705,4.10944 -20.63285,11.85444 -3.0358,5.75462 -3.10003,6.66858 -3.10003,44.11111 0,21.02911 0.4,38.63474 0.88889,39.12363 0.48889,0.48888 10.70374,0.88888 22.69967,0.88888 h 21.81078 z m 130.09357,81.3965 c -0.4496,-1.1718 -0.8175,-18.56036 -0.8175,-38.64125 0,-33.4189 0.1976,-36.61392 2.3333,-37.72953 1.2833,-0.67036 16.1971,-1.30683 33.1418,-1.41437 26.3136,-0.16701 31.0577,0.10487 32.5173,1.86353 2.1537,2.59506 0.9344,16.5997 -1.5843,18.19716 -0.9578,0.60748 -10.8915,1.1137 -22.0748,1.12493 l -20.3333,0.0204 v 18.66667 18.66666 l 23,0.0204 c 12.65,0.0112 23.7796,0.51494 24.7324,1.11935 1.2165,0.77163 1.6136,3.84325 1.3334,10.31292 l -0.3992,9.21398 -35.5157,0.35483 c -31.5155,0.31486 -35.6079,0.11485 -36.3334,-1.77572 z m -0.2106,-100.92064 c -0.3535,-0.92118 -0.4847,-22.37118 -0.2915,-47.66667 l 0.3512,-45.99181 36.2,-0.35452 36.2,-0.35452 0.9159,7.8922 c 1.583,13.63861 1.8738,13.48351 -25.2841,13.48351 -12.7642,0 -23.4726,0.45 -23.7963,1 -0.3237,0.55 -0.8091,7.9 -1.0786,16.33334 l -0.4902,15.33333 24.6667,0.66667 24.6666,0.66666 v 9.33334 9.33333 l -24.3333,0.36341 -24.3333,0.36341 v 8.52754 c 0,12.81238 0.064,12.74564 -12.1845,12.74564 -7.2503,0 -10.7676,-0.52557 -11.2086,-1.67486 z M 216.49661,317.00001 c -0.6398,-0.91667 -0.86326,-17.56667 -0.4966,-37 l 0.66667,-35.33334 9.88252,-0.3961 c 7.00506,-0.28077 10.20194,0.10745 10.97958,1.33333 1.63622,2.57938 1.41339,67.39001 -0.24234,70.48376 -1.15816,2.16404 -2.84822,2.57902 -10.50341,2.57902 -5.78924,0 -9.54826,-0.60906 -10.28642,-1.66667 z m 92.83674,-163.68359 c -1.2924,-0.84614 -33.15824,-0.99891 -90.06787,-0.43178 l -88.06787,0.87762 -2.93213,-3.72761 c -3.62605,-4.60977 -3.65443,-6.09011 -0.20092,-10.48054 l 2.73122,-3.47218 172.22391,-0.005 c 190.85843,-0.006 178.31367,-0.60557 178.31367,8.52401 0,3.31564 -0.94696,5.28404 -3.51314,7.3026 -3.46778,2.72776 -4.56532,2.76318 -85.00001,2.74302 -51.04967,-0.0128 -82.2339,-0.50951 -83.48686,-1.32983 z m 471.29175,-1.90348 c -4.00373,-4.00374 -4.16218,-7.28003 -0.57276,-11.84324 l 2.71895,-3.45659 178.28106,0.0387 c 197.26295,0.0428 184.28105,-0.55702 184.28105,8.51487 0,9.41541 4.1026,9.04149 -96.364,8.78271 -49.29982,-0.12699 -129.10473,0.1035 -177.34429,0.5122 l -87.70828,0.74308 z M 249.66668,107.37972 c -4.20596,-3.081 -4.03226,-9.308543 0.33953,-12.173054 3.05903,-2.004349 12.60657,-2.10594 113.66668,-1.209478 62.36766,0.553238 111.34145,1.511461 112.66047,2.204319 2.7238,1.430756 3.16225,8.123443 0.66667,10.176313 -1.092,0.89828 -40.05451,1.68623 -113.00001,2.28525 -102.19802,0.83924 -111.5795,0.73393 -114.33334,-1.28335 z m 588.33337,0.65016 c -29.33333,-0.3831 -54.01091,-1.13719 -54.83906,-1.67577 -2.85211,-1.85482 -3.05187,-6.463174 -0.39532,-9.119724 2.44854,-2.448546 5.02749,-2.567793 55.56772,-2.569358 29.15,-9.03e-4 79.45366,-0.397241 111.78592,-0.880751 l 58.78589,-0.879109 2.8808,2.880751 c 3.7321,3.732107 3.6954,8.825581 -0.083,11.471811 -2.5897,1.81392 -10.3645,2.03735 -61.66668,1.77215 -32.28683,-0.16691 -82.70333,-0.61691 -112.03667,-1 z M 327.00002,61.291786 c -4.22833,-1.699581 -4.13766,-8.484884 0.15092,-11.294873 2.7646,-1.811431 11.99533,-2.019546 75.28648,-1.697404 65.22197,0.33197 72.34829,0.579974 74.35528,2.587645 2.99863,2.99965 1.55541,8.22246 -2.82344,10.217595 -4.18045,1.90474 -142.25865,2.080462 -146.96924,0.187037 z m 458.33336,-0.342335 c -2.00339,-1.008451 -3.49322,-3.041055 -3.73407,-5.094472 -0.85541,-7.292851 -2.29486,-7.158014 80.57842,-7.548068 75.15306,-0.353718 76.48136,-0.31455 79.12924,2.333333 3.40024,3.400238 3.40752,5.978665 0.0264,9.359758 -2.60394,2.603939 -4.43087,2.666204 -77.66667,2.647011 -57.58068,-0.01509 -75.7742,-0.409362 -78.33334,-1.697562 z"
         id="path46" />
      <path
         style="fill:#b56846"
         d="m 561.32474,656.08757 c -11.14154,-3.38911 -19.07949,-12.42959 -20.76134,-23.64496 -1.9028,-12.68881 6.808,-27.16145 18.71268,-31.09035 7.85687,-2.593 18.50766,-1.13512 25.10403,3.43625 6.35056,4.40102 12.9578,15.85926 12.94583,22.4506 -0.0341,18.78452 -19.03414,34.0096 -36.0012,28.84846 z m 14.66057,-14.07994 c 5.54883,-2.86941 8.01473,-7.10632 8.01473,-13.77095 0,-4.85999 -0.75858,-6.59524 -4.53334,-10.36999 -3.8695,-3.86951 -5.45098,-4.53334 -10.8,-4.53334 -5.34902,0 -6.93049,0.66383 -10.8,4.53334 -3.58882,3.58881 -4.53229,5.60285 -4.52835,9.66666 0.0123,12.69382 11.67531,20.14795 22.64696,14.47428 z m -135.09639,13.1035 c -1.68346,-1.68346 -1.0177,-51.78231 0.71111,-53.51111 0.92053,-0.92054 5.30875,-1.59684 10.33333,-1.59257 17.18495,0.0146 25.4,4.76458 25.4,14.68628 0,3.01488 -0.63665,6.6712 -1.41478,8.12515 -1.16522,2.17722 -0.6948,3.46358 2.66666,7.29208 4.61564,5.25691 5.2426,10.44274 2.01673,16.6809 -3.77818,7.30619 -8.85706,9.19758 -24.71305,9.20318 -7.76111,0.003 -14.51111,-0.39502 -15,-0.88391 z m 26.81443,-11.85338 c 6.26627,-4.38907 1.99618,-9.9244 -7.65591,-9.9244 -4.63221,0 -6.65494,0.58939 -7.23809,2.10905 -1.26578,3.29858 -0.95628,6.54399 0.79068,8.29095 2.26554,2.26555 10.5906,1.9848 14.10332,-0.4756 z m -3.92,-21.76227 c 0.98083,-0.6217 1.58083,-2.56251 1.33334,-4.31291 -0.38242,-2.70465 -1.30092,-3.24412 -6.11666,-3.59255 -5.45441,-0.39464 -5.66667,-0.26562 -5.66667,3.44445 0,2.11994 0.4,4.25444 0.88889,4.74333 1.25158,1.25158 7.42892,1.06918 9.5611,-0.28232 z m 43.83569,33.67911 c -0.52379,-0.52379 -0.95234,-12.81192 -0.95234,-27.30694 0,-25.48955 0.0907,-26.38338 2.76289,-27.23151 1.5196,-0.4823 4.23197,-0.50819 6.02751,-0.0575 l 3.26461,0.81936 -0.36084,26.9677 -0.36084,26.96769 -4.71432,0.39679 c -2.59288,0.21824 -5.14288,-0.0318 -5.66667,-0.55555 z m 119.68627,-0.84124 c -0.33607,-0.91666 -0.76724,-10.36666 -0.95816,-21 l -0.34711,-19.33333 -6,-0.66667 -6,-0.66666 v -6 -6.00001 h 18.66667 18.66667 v 6.00001 6 l -5.31604,0.43266 c -2.92381,0.23796 -5.76463,1.13796 -6.31291,2 -0.54829,0.86203 -1.00608,10.41734 -1.01731,21.234 l -0.0204,19.66667 h -5.37518 c -3.08537,0 -5.63548,-0.71 -5.98622,-1.66667 z m 47.97132,-4.1e-4 c -0.36826,-0.95967 -0.50614,-13.42717 -0.30641,-27.70555 l 0.36316,-25.96071 17.63161,-0.37178 17.63161,-0.37179 0.82212,3.27556 c 0.45216,1.80156 0.43476,4.49598 -0.0387,5.98762 -0.76526,2.41111 -2.1472,2.75469 -12.45373,3.09623 l -11.59295,0.38417 v 5.33333 5.33333 l 8.66666,0.66667 8.66667,0.66667 v 4.66666 4.66667 L 696,634.66669 c -8.64484,0.66498 -8.66771,0.67757 -9.08447,5 l -0.41782,4.33333 h 11.25456 c 12.48896,0 14.74078,1.21923 14.01075,7.58604 l -0.42968,3.74729 -17.69359,0.37222 c -13.61787,0.28648 -17.84783,-0.0297 -18.36316,-1.37263 z m 68.58585,-2.08355 c -11.51763,-7.39811 -16.31246,-23.39114 -10.66795,-35.5827 6.53536,-14.11572 23.00249,-20.46088 36.80552,-14.18203 8.67256,3.94506 9.51542,5.8567 4.87307,11.05239 l -3.94477,4.41497 -4.84272,-2.30934 c -2.6635,-1.27013 -6.47236,-2.30709 -8.46415,-2.30434 -5.23498,0.007 -11.55531,4.34028 -13.62734,9.3426 -5.13504,12.39709 11.5838,26.80255 22.35268,19.25974 3.25344,-2.2788 5.95298,-1.43271 10.12002,3.17181 2.39037,2.64133 2.32919,2.76412 -3.2009,6.42376 -4.43117,2.93241 -7.52433,3.82989 -14.45187,4.19321 -7.9099,0.41485 -9.4436,0.0579 -14.95159,-3.48007 z m 58.42325,2.9252 c -0.52379,-0.52379 -0.95235,-12.84092 -0.95235,-27.37139 v -26.41904 l 3.53971,-0.88841 c 5.95775,-1.4953 7.72226,0.79359 8.4603,10.97452 l 0.66666,9.19642 h 9.33334 9.33333 l 0.66667,-9.19642 c 0.73886,-10.19235 2.50158,-12.47006 8.4878,-10.96762 l 3.56721,0.89531 -0.36084,26.9677 -0.36084,26.96769 h -5.33333 -5.33334 l -0.66666,-10.66666 -0.66667,-10.66667 h -9.33333 -9.33334 l -0.66666,10.66667 -0.66667,10.66666 -4.71432,0.39679 c -2.59288,0.21824 -5.14288,-0.0318 -5.66667,-0.55555 z M 324.2967,625.92441 c -4.20136,-2.94274 -3.93633,-8.96549 0.5498,-12.49428 3.27217,-2.5739 5.23845,-2.76344 28.66667,-2.76344 23.37574,0 25.34199,0.18847 27.82019,2.66666 3.19667,3.19667 3.42215,7.66138 0.59106,11.70333 -2.02556,2.89189 -2.70961,2.96334 -28.36999,2.96334 -21.64052,0 -26.81888,-0.36736 -29.25773,-2.07561 z m 570.90296,1.05519 c -1.77118,-1.18265 -4.53294,-6.23093 -4.53294,-8.28587 0,-0.81487 1.47273,-2.95432 3.27273,-4.75432 3.23111,-3.23111 3.57638,-3.27272 27.15352,-3.27272 22.14063,0 24.1368,0.20136 27.39395,2.76344 4.48613,3.52879 4.75115,9.55154 0.5498,12.49428 -2.42604,1.69927 -7.44244,2.07191 -27.66667,2.05519 -13.58683,-0.0112 -25.3635,-0.46123 -26.17039,-1 z M 572.77855,575.00002 c -0.54959,-0.55 -56.20293,-1.3 -123.67408,-1.66667 l -122.67483,-0.66667 -2.54814,-3.14771 c -3.03365,-3.74745 -3.22544,-6.74964 -0.65571,-10.26411 1.84993,-2.53004 4.53794,-2.58505 119.66667,-2.4491 64.77583,0.0765 145.67424,0.8457 179.77425,1.70935 54.30993,1.37552 63.73887,1.31693 76.0194,-0.4724 11.79752,-1.71895 33.5688,-2.04269 137.37,-2.04269 138.11625,0 129.82663,-0.58641 129.01689,9.12669 -0.35059,4.20534 -1.01631,5.07049 -4.85694,6.31187 -3.02417,0.97748 -44.41206,1.54084 -129.12971,1.75767 -68.57346,0.17552 -128.07067,0.87469 -132.216,1.55372 -8.95749,1.46729 -124.64621,1.69671 -126.0918,0.25005 z M 131.60448,567.9825 c -2.55644,-3.64983 -1.05767,-7.56825 3.4766,-9.08931 3.24722,-1.0893 121.11568,0.53247 125.89588,1.73223 4.33558,1.08816 3.726,3.00677 -1.31028,4.12404 -3.78681,0.84008 -3.99701,1.09386 -1.66666,2.01222 5.22526,2.05923 3.55345,2.14405 -64.79229,3.28749 l -59.45894,0.99476 z m 908.39562,1.38541 c -18.7,-0.38567 -33.8079,-1.00123 -33.573,-1.36789 0.2349,-0.36667 -0.1645,-2.22264 -0.8875,-4.12438 l -1.3146,-3.45772 28.8875,-0.87235 c 15.8882,-0.47979 46.4504,-0.87382 67.9162,-0.87562 l 39.0285,-0.003 1.5163,3.32792 c 1.2529,2.74978 1.0962,3.79212 -0.9019,6 -2.3075,2.54984 -3.8879,2.65842 -34.5448,2.37331 -17.6697,-0.16432 -47.4267,-0.61432 -66.1267,-1 z M 574.37325,533.27614 c -29.43942,-7.23814 -48.94344,-26.38313 -60.38771,-59.27613 -2.14203,-6.15661 -2.29943,-15.38857 -2.05721,-120.66667 0.14426,-62.7 -0.14478,-115.05 -0.64232,-116.33333 -0.85605,-2.20808 -11.86618,-2.33381 -205.09531,-2.34219 l -204.19069,-0.009 -12.666671,3.4566 c -6.966667,1.90113 -14.321152,4.07976 -16.3433,4.84141 -5.764842,2.17133 -17.29015,15.63822 -23.346791,27.27985 -6.358113,12.2211 -8.280056,19.32323 -9.46324,34.96938 -0.758672,10.03251 -1.209176,11.46615 -4.334428,13.79342 -3.269492,2.4347 -3.745531,2.46393 -7.606873,0.46715 -5.508005,-2.8483 -6.277135,-7.64628 -4.474991,-27.91584 2.529157,-28.4466 9.882409,-48.47438 25.170135,-68.55497 14.063386,-18.4724 38.014965,-33.8499 63.247929,-40.60671 l 11.15156,-2.98614 176.52375,-0.39181 c 196.01691,-0.43508 182.80961,-1.02747 182.80961,8.19951 0,2.45997 -0.75,5.0678 -1.66667,5.79519 -1.07049,0.84945 -64.86172,1.63194 -178.33334,2.18752 -197.7281,0.96812 -186.46869,0.38261 -207.563039,10.79369 -14.423751,7.11881 -31.781729,22.40632 -36.494333,32.14126 -1.603016,3.31139 -2.674637,6.26065 -2.381379,6.55391 0.293257,0.29325 3.211941,-1.74187 6.485964,-4.5225 3.274022,-2.78064 8.052768,-5.46674 10.619435,-5.96913 2.566667,-0.50238 7.666667,-2.90083 11.333334,-5.32989 7.712059,-5.10899 20.280228,-10.32951 32.666668,-13.56894 6.82339,-1.78453 15.18904,-2.30352 39.33334,-2.44016 51.59225,-0.292 310.75415,1.81141 331.5237,2.69071 19.37067,0.82007 19.53649,0.80263 21.15655,-2.22449 1.15657,-2.16106 1.72238,-14.17294 1.93974,-41.17951 0.16879,-20.97066 0.39834,-46.67675 0.51012,-57.12464 l 0.20324,-18.996155 4.75463,-5.2628 c 2.61504,-2.89454 6.81504,-5.9428 9.33333,-6.773911 2.51829,-0.831111 4.57871,-2.037934 4.57871,-2.681829 0,-0.643895 -1.46375,-3.327683 -3.25279,-5.963972 -1.78903,-2.63629 -3.94643,-8.134498 -4.79421,-12.218239 -4.10762,-19.786275 6.21134,-38.736481 24.90089,-45.729137 6.96744,-2.606851 10.10333,-2.711089 81.52947,-2.710078 l 74.28332,0.0011 8.14159,3.851651 c 9.30387,4.401505 16.50698,11.035789 20.8263,19.181657 2.36577,4.461637 2.99075,7.846736 3.00903,16.297923 0.0207,9.547262 -0.43168,11.496087 -4.31025,18.570109 -2.38334,4.346894 -4.33334,8.331849 -4.33334,8.855457 0,0.523607 1.45376,1.316883 3.23057,1.762835 3.84645,0.965395 10.84132,6.622984 13.13282,10.622082 1.15099,2.008675 1.83443,14.923127 2.30328,43.522857 l 0.66667,40.66667 203.33334,0.66666 203.33331,0.66667 11.5181,3.61777 c 30.7747,9.66618 50.6174,23.85576 65.2427,46.6553 14.1138,22.00208 19.4649,39.30413 20.8004,67.25485 l 0.8376,17.52792 -3.4721,3.47208 c -4.1541,4.15406 -6.1567,4.31924 -10.5423,0.86952 -3.0291,-2.38269 -3.3745,-3.76586 -4.0884,-16.37231 -0.9419,-16.63173 -3.8277,-25.12734 -12.8638,-37.86955 -11.1291,-15.69382 -17.8363,-21.2416 -30.7883,-25.46631 l -11.3105,-3.68927 -216.33337,-0.35299 -216.33335,-0.35299 v 115.01716 115.01716 l -4.72455,14.1787 c -5.28341,15.8559 -15.3611,31.34769 -26.13559,40.17657 -8.04598,6.59308 -24.27183,14.09622 -33.88956,15.67117 -4.35433,0.71305 -27.71697,1.25648 -51.91697,1.20763 -38.51174,-0.0777 -45.28394,-0.40449 -54.29346,-2.61961 z m -13.03988,-26.08022 c 0,-0.44225 -2.68751,-3.79325 -5.97225,-7.44667 -7.814,-8.69105 -13.71332,-20.97015 -15.25346,-31.74924 -1.09726,-7.67941 -0.94394,-9.04637 1.34594,-12 5.86514,-7.56521 6.05407,-9.05596 2.08696,-16.46676 l -3.67578,-6.86657 0.40096,-109.36664 0.40096,-109.36663 3,-3.81318 c 1.65,-2.09725 3,-5.23227 3,-6.9667 0,-7.02168 -9.6021,-11.07022 -14.89501,-6.28021 -2.9449,2.6651 -3.19783,9.61285 -0.48073,13.20518 1.68429,2.22683 1.96352,18.19536 2,114.37787 0.0417,109.80383 -0.005,111.84992 -2.62426,115.17982 -3.46404,4.40381 -3.3747,8.10495 0.28979,12.00562 2.32545,2.47533 3.15415,5.4475 3.88274,13.92562 1.1966,13.92405 7.47404,27.24273 17.07144,36.21996 6.01283,5.62431 9.4227,7.58153 9.4227,5.40853 z m 44,-44.52924 c 0,-0.73333 -0.55165,-1.33333 -1.22588,-1.33333 -0.67424,0 -4.53606,-3.02532 -8.58183,-6.72292 -8.61402,-7.87273 -11.31813,-14.00678 -8.82648,-20.02216 0.89341,-2.15688 2.1822,-3.92159 2.86399,-3.92159 0.68178,0 2.11212,-2.08822 3.17852,-4.64049 1.06641,-2.55226 3.42566,-5.61463 5.24278,-6.80525 2.8898,-1.89347 14.01557,-16.63876 14.01557,-18.57523 0,-0.6668 3.23813,-4.37846 12.33333,-14.13692 2.01667,-2.16373 3.66667,-5.2348 3.66667,-6.82461 0,-1.5898 1.75113,-4.71911 3.89141,-6.95403 2.14027,-2.23491 5.36066,-6.85311 7.15642,-10.26266 1.79576,-3.40956 4.59687,-7.60956 6.2247,-9.33334 1.62783,-1.72377 4.11964,-5.38414 5.53735,-8.13414 1.41771,-2.75 3.16546,-5 3.88389,-5 0.71843,0 1.30623,-1.48056 1.30623,-3.29014 0,-2.40473 1.88377,-4.72155 7,-8.60919 3.85,-2.92548 8.37336,-9.28731 11.26567,-11.70986 5.72849,-4.79809 8.19563,-18.37396 6.63537,-19.93422 -0.42603,-0.42603 -2.45305,2.10267 -4.50449,5.61934 -6.69099,11.47001 -12.35665,16.71331 -23.77959,22.00686 -7.05449,3.26916 -12.42857,6.86133 -15.72706,10.51235 -5.85177,6.47722 -7.46264,6.36161 -15.05463,-1.08042 -3.24856,-3.18438 -7.92558,-5.96262 -12.51157,-7.43211 -9.1219,-2.92293 -18.62012,-9.13105 -22.39183,-14.6355 -3.6647,-5.34829 -8.54924,-19.45041 -7.59676,-21.93255 0.91744,-2.3908 15.17197,-1.37416 25.78827,1.83923 13.00667,3.93691 22.64554,17.31994 22.96686,31.88821 0.0758,3.43718 0.26413,3.66497 1.1778,1.42467 0.59816,-1.46667 2.05219,-6.00241 3.23119,-10.07943 3.97887,-13.75909 14.37642,-22.13218 33.69323,-27.13301 11.95772,-3.09566 16.44836,-2.85756 16.57947,0.8791 0.0691,1.96896 0.35801,2.31264 0.84065,1 0.40447,-1.1 1.7071,-3.11227 2.89474,-4.47172 1.88076,-2.15284 2.24536,-8.91875 2.82602,-52.44297 0.603,-45.19953 0.88504,-50.13072 2.9536,-51.64134 6.1232,-4.47163 0.79576,-4.7773 -83.26212,-4.7773 -74.36155,0 -82.52214,0.20921 -83.26096,2.13456 -1.41329,3.68297 2.36291,4.49066 21.09348,4.51169 14.07984,0.0158 18.34771,0.4296 18.88551,1.8311 0.38216,0.99588 0.71871,54.32042 0.7479,118.49898 0.039,85.80071 0.47476,118.40912 1.64615,123.18932 3.7462,15.28742 11.98091,26.12481 25.19643,33.16009 8.9816,4.78135 12,5.6217 12,3.34093 z m 24,-166.70852 c 0,-0.75635 -1.05,-1.76599 -2.33333,-2.24365 -1.28333,-0.47766 -4.43333,-2.48477 -7,-4.46025 -2.56667,-1.97547 -9.05918,-5.2773 -14.42781,-7.33739 -6.00767,-2.30531 -11.71749,-5.64419 -14.84872,-8.68295 -5.0545,-4.90522 -10.17253,-15.81895 -10.98344,-23.42118 -0.36838,-3.45352 0.0172,-3.85326 4.09281,-4.24294 2.47472,-0.23661 8.87634,0.54355 14.2258,1.73369 17.24118,3.8358 26.00537,13.3417 29.22432,31.69758 1.76605,10.0708 2.30685,9.69374 4.00173,-2.79008 2.03817,-15.01231 9.86769,-22.33603 30.90169,-28.90539 8.16918,-2.55141 15.59818,-4.63893 16.50889,-4.63893 2.34954,0 0.92263,9.19706 -2.53058,16.31067 -5.08076,10.46634 -10.10674,15.09749 -23.50505,21.65853 -8.98093,4.39789 -13.90438,7.73609 -16.89084,11.45234 -4.16326,5.18062 -6.43547,6.547 -6.43547,3.86995 z M 1195.195,216.41664 c -2.8572,-2.42745 -10.3698,-7.10367 -16.6946,-10.39161 -21.9429,-11.40693 -3.1989,-10.50977 -229.16701,-10.96878 -110.36667,-0.22419 -201.44343,0.0984 -202.3928,0.71684 -1.28847,0.83935 -1.49339,3.39605 -0.80822,10.08373 l 0.91791,8.95927 140.80822,-0.78049 c 77.44453,-0.42927 166.3082,-1.0115 197.4749,-1.29384 31.1667,-0.28234 61.4667,0.0114 67.3333,0.65285 5.8667,0.64141 15.8744,1.57686 22.2393,2.07878 9.2353,0.72826 12.8708,1.67201 18,4.67266 8.1013,4.73934 9.5257,2.41869 2.289,-3.72941 z M 630.66671,142.58219 c 30.39734,-1.70032 33.33333,-2.16603 33.33333,-5.28736 0,-1.35893 0.58261,-2.83085 1.29468,-3.27094 0.71208,-0.44008 1.68323,-3.72916 2.15812,-7.30905 0.59259,-4.46716 1.85945,-7.37492 4.03865,-9.26972 1.75388,-1.52497 3.17522,-4.24551 3.17522,-6.07756 0,-4.27254 0.67867,-4.40372 29.33334,-5.66987 22.8455,-1.00946 23.34226,-1.09392 23.76051,-4.03953 l 0.42719,-3.008515 -99.76053,0.341846 -99.76052,0.341845 -0.38276,19.333334 c -0.47163,23.82238 -0.22449,25.00208 5.38704,25.715 6.69202,0.8502 70.9328,-0.34161 96.99573,-1.79948 z M 574.37505,63.403379 c 0.2158,-9.915465 0.99269,-17.974835 1.82993,-18.983648 1.84522,-2.223358 7.29832,-2.277409 8.71637,-0.0864 0.59328,0.916666 1.37869,9.466667 1.74535,19 0.54701,14.222223 1.02565,17.333334 2.66667,17.333334 1.64445,0 2.11852,-3.160552 2.66667,-17.778298 0.58538,-15.610734 0.98222,-18.008531 3.25484,-19.666667 3.1625,-2.307411 3.64479,-2.323871 6.49603,-0.221703 1.82874,1.348292 2.45049,5.045493 3.25484,19.354544 0.55378,9.851384 1.58501,17.82616 2.32762,18 0.81156,0.18998 1.59479,-6.52191 2.00144,-17.151355 0.68065,-17.791175 1.8724,-21.869855 6.39017,-21.869855 4.65951,0 6.94138,4.116503 6.95121,12.539983 0.0172,14.71158 1.55363,26.126684 3.51666,26.126684 1.41534,0 1.80719,-3.305893 1.80719,-15.246534 0,-8.385594 0.56563,-16.734253 1.25695,-18.552575 1.68956,-4.443855 6.20733,-5.765682 9.50527,-2.781085 2.28506,2.067948 2.57111,4.232312 2.57111,19.453511 0,16.237795 0.13841,17.126683 2.66667,17.126683 2.52519,0 2.66667,-0.888888 2.66667,-16.754322 0,-9.214877 0.62111,-17.914878 1.38024,-19.333334 1.56432,-2.92296 7.8178,-3.514303 10.35309,-0.979011 0.88,0.88 1.64448,4.93 1.69883,9 0.0544,4.07 0.53982,10.1 1.0788,13.4 0.85425,5.230286 1.06343,4.328988 1.63059,-7.025711 0.91873,-18.393513 0.72334,-18.246776 25.64043,-19.256353 10.75325,-0.435695 19.55136,-1.331085 19.55136,-1.989756 0,-0.658672 -2.08073,-2.066969 -4.62385,-3.129549 -3.84507,-1.606576 -16.81774,-1.931965 -77.02382,-1.931965 h -72.39999 l -4.8336,3.284522 c -9.69961,6.591052 -13.11691,21.035427 -7.64893,32.330765 2.70969,5.597468 9.8283,12.384714 12.98936,12.384714 1.07306,0 1.54678,-4.553673 1.56047,-15 0.0208,-15.898088 1.45989,-21.273141 5.92571,-22.133177 4.80671,-0.925689 6.05464,3.299401 6.05464,20.499128 0,8.904283 0.42074,16.610347 0.93498,17.124587 0.51424,0.51424 1.86424,0.756881 3,0.539203 1.71384,-0.328472 2.12879,-3.326028 2.44003,-17.626364 z M 123.33334,529.17785 C 107.37821,526.85707 89.186246,519.64876 74.620049,509.87591 37.556463,485.00894 22.786521,446.4881 22.686441,374.43012 c -0.01917,-13.80255 0.08733,-14.32081 3.493372,-17 4.500367,-3.53999 6.556905,-3.48127 10.333213,0.29504 2.692643,2.69264 3.15393,4.80582 3.856468,17.66666 1.694431,31.01873 17.431127,65.59518 32.600059,71.6284 3.853931,1.53285 14.073804,2.20462 43.697117,2.87231 21.26667,0.47933 41.66667,1.44197 45.33334,2.1392 3.66667,0.69722 7.86667,1.23378 9.33333,1.19234 3.04636,-0.0861 15.62214,4.28922 18.24862,6.34892 3.15524,2.47436 10.68972,4.42456 17.61702,4.55993 3.74057,0.0731 8.30103,0.56117 10.13437,1.08461 2.70806,0.77318 1.95773,1.12124 -4,1.8555 -4.03334,0.49709 -10.33334,0.97476 -14,1.06148 l -6.66667,0.15768 5.33333,1.03115 c 2.93334,0.56713 68.33334,1.43131 145.33335,1.9204 94.76608,0.60193 141.19018,1.3531 143.68363,2.32488 5.84781,2.27909 6.84296,11.09341 1.55029,13.73124 -1.83311,0.91361 -63.5036,1.36682 -185.9882,1.36682 -170.02248,0 -183.84764,-0.16739 -191.58671,-2.31964 -18.639024,-5.18354 -36.701825,-15.0761 -50.154947,-27.46864 -9.280334,-8.54871 -11.504087,-10.17703 -11.504087,-8.42376 0,2.79531 16.083723,18.60349 25.658442,25.21886 23.272417,16.07941 45.645792,20.81506 103.295572,21.86402 6.0247,0.10962 10.7004,0.60966 10.39044,1.11119 -0.30996,0.50153 1.55223,1.92082 4.13821,3.15399 5.12898,2.44584 11.31981,2.5732 212.60246,4.37372 l 90.08511,0.80583 1.24823,2.84222 c 0.93685,2.1332 2.80759,3.02153 7.49921,3.56103 7.44669,0.85632 11.74902,4.30295 11.74902,9.41223 0,8.39988 13.04222,7.88524 -195.29668,7.70636 -104.15351,-0.0894 -192.97001,-0.68623 -197.37001,-1.32624 z m 622.87336,-0.94949 c -4.83137,-5.3386 -1.19127,-12.65522 7.45432,-14.98323 3.05983,-0.82393 6.18787,-2.27845 6.95118,-3.23226 1.10084,-1.37557 23.86018,-2.03972 110.05452,-3.21156 194.11108,-2.63899 199.65428,-2.84617 205.41308,-7.6775 1.5243,-1.27875 12.2086,-2.07227 40,-2.97077 35.1455,-1.13625 38.7935,-1.48464 49.8545,-4.76118 13.677,-4.05151 30.2238,-12.26486 39.5321,-19.6226 6.7825,-5.36126 20.4578,-20.95626 19.3489,-22.06511 -0.3614,-0.3614 -5.4149,3.53544 -11.23,8.65964 -18.2977,16.12372 -39.6836,26.49913 -60.9572,29.5735 -10.8271,1.5647 -156.27443,1.81859 -291.08635,0.50811 -98.82798,-0.96069 -95.51447,-0.67534 -94.61409,-8.14782 0.22315,-1.85194 1.90572,-4.46574 3.73906,-5.80843 3.16741,-2.31974 10.89944,-2.48533 155.33334,-3.32645 83.60004,-0.48685 153.20004,-1.35959 154.66664,-1.93942 2.1455,-0.84817 1.7545,-1.09673 -2,-1.27166 -2.5666,-0.11958 -6.1666,-0.64476 -8,-1.16706 l -3.3333,-0.94963 3.3333,-0.83951 c 1.8334,-0.46172 8.4334,-1.2165 14.6667,-1.67728 30.2757,-2.23802 37.8543,-3.60076 35.6667,-6.41336 -0.1834,-0.23572 0.6924,-1.4543 1.946,-2.70797 1.8722,-1.87222 6.3976,-2.48433 25.3334,-3.42668 12.6796,-0.63101 24.2539,-1.06242 25.7206,-0.9587 1.4666,0.10372 8.2693,-0.31058 15.1171,-0.92067 11.4962,-1.02424 12.8246,-1.44768 17.3333,-5.52489 5.761,-5.20966 16.0378,-22.1709 20.0517,-33.09411 3.4797,-9.46944 6.8186,-29.36143 6.8259,-40.66569 0,-7.13025 0.498,-8.88664 3.278,-11.66667 4.0315,-4.03148 7.8346,-4.16542 11.5918,-0.40824 2.8036,2.80365 2.8475,3.46197 2.0634,31 -1.5611,54.8264 -11.9018,86.51211 -35.8059,109.71532 -9.7369,9.45137 -28.4631,20.88313 -40.8505,24.93794 -23.7109,7.76137 -15.1731,7.48226 -228.87881,7.48226 -188.49127,0 -196.40066,-0.0971 -198.51939,-2.43832 z M 120.58407,441.50158 c -8.06452,-2.09822 -18.39404,-8.79517 -22.503138,-14.58949 -5.594765,-7.88928 -7.194124,-12.8274 -7.312822,-22.57874 l -0.101438,-8.33334 h 10.501558 10.50156 l 0.61273,7.38863 c 0.70568,8.50961 3.76991,13.48613 10.47893,17.01854 5.74205,3.02328 15.95683,2.3834 21.00455,-1.31577 6.51458,-4.77414 8.31884,-10.33617 7.92312,-24.42473 l -0.35578,-12.66667 -21.33333,-0.66667 -21.33334,-0.66666 -0.39425,-9 -0.39425,-9 6.39425,-0.15776 c 3.51684,-0.0868 8.19425,-0.55087 10.39425,-1.03136 l 4,-0.87362 -8.66666,-5.89398 c -15.09924,-10.26861 -25.360381,-18.89467 -27.578419,-23.18389 -1.744269,-3.37304 -2.174087,-9.04886 -2.284989,-30.17363 l -0.136596,-26.0191 3.883588,-8.41096 c 5.214408,-11.29321 12.827106,-17.91633 24.100856,-20.96799 21.19994,-5.73856 41.85861,2.32135 51.07208,19.92559 3.38578,6.46922 3.58448,7.96348 4.24771,31.94321 l 0.69577,25.15651 6,5.34612 c 3.3,2.94036 14.4,12.07183 24.66667,20.29214 21.64176,17.32812 29.59395,24.80713 31.38474,29.51726 0.70506,1.85445 1.28193,16.21155 1.28193,31.90468 0,26.84509 -0.15256,28.61461 -2.57901,29.9132 -3.53436,1.89153 -15.19239,1.74219 -17.15433,-0.21975 -1.13609,-1.1361 -1.6,-9.21162 -1.6,-27.85229 0,-23.09429 -0.28068,-26.57406 -2.33333,-28.92717 -1.28333,-1.47119 -14.5217,-12.38624 -29.41859,-24.25568 -14.89689,-11.86944 -28.24465,-23.48222 -29.66169,-25.80617 -2.30842,-3.78584 -2.57694,-6.87469 -2.58141,-29.69485 -0.005,-24.21742 -0.15246,-25.68555 -3.00498,-29.86452 -8.48761,-12.43443 -25.43879,-12.18431 -34.91762,0.51523 -2.49578,3.3438 -2.74905,5.55948 -2.74905,24.04977 0,14.39775 0.51974,21.33759 1.77342,23.67965 0.97539,1.82215 6.02326,6.56268 11.21749,10.53451 25.45361,19.4634 43.23875,34.32447 45.97797,38.41869 2.78395,4.16106 3.03112,6.01728 3.03112,22.76248 0,21.34177 -1.6176,27.62503 -9.38323,36.44725 -6.88579,7.82267 -16.14636,11.74029 -29.19624,12.35127 -5.54796,0.25974 -11.92437,-0.006 -14.1698,-0.58994 z m 694.82699,-0.80806 c -10.06708,-2.87389 -16.79139,-8.31717 -21.39429,-17.31852 l -4.01672,-7.85503 0.43507,-70.75998 c 0.28403,-46.19348 0.94414,-72.52328 1.90136,-75.83888 0.80646,-2.7934 3.83375,-7.76848 6.72731,-11.05575 16.99596,-19.30843 47.11443,-15.76101 59.23347,6.97665 3.53746,6.63695 4.25688,9.52948 4.48158,18.01879 0.14721,5.56199 -0.1532,10.79366 -0.66759,11.62595 -1.25907,2.03722 -17.12567,1.96546 -19.17786,-0.0867 -0.91089,-0.91089 -1.6,-5.2728 -1.6,-10.12761 0,-9.59996 -2.25544,-14.6669 -8.05311,-18.09167 -5.98144,-3.53332 -11.32958,-2.78224 -16.96647,2.38273 l -4.98042,4.56345 -0.36861,68.06162 c -0.41423,76.48441 -0.47984,75.86696 8.45874,79.60174 7.9898,3.33835 17.5145,-0.0645 20.5252,-7.333 0.85343,-2.06034 1.97152,-6.6811 2.48465,-10.26834 l 0.93297,-6.52225 h 9.31686 9.31686 l 0.39688,8.3307 c 0.47729,10.01827 -2.32671,17.29118 -9.91332,25.71279 -8.91446,9.89561 -23.56233,13.84017 -37.07256,9.98335 z m -541.74438,-0.24321 c -1.31194,-0.52939 -1.66666,-21.36453 -1.66666,-97.89474 v -97.22223 h 9.9746 c 9.70191,0 9.99907,0.0975 10.86989,3.56713 0.49241,1.96192 0.59395,15.01192 0.22565,29 -0.3683,13.98808 -0.29108,29.93287 0.1716,35.43287 0.99477,11.82501 0.61997,12.33546 10.76925,-14.66666 9.24047,-24.58425 14.5203,-38.02874 18.21739,-46.38853 l 3.12081,-7.0567 10.32541,0.38928 c 8.2459,0.31088 10.27779,0.79207 10.08901,2.38928 -0.13002,1.1 -4.68093,13.1 -10.11314,26.66667 -14.5267,36.27969 -23.97493,62.61967 -24.63095,68.66666 -0.65188,6.00884 3.96801,19.87184 22.43711,67.32747 8.99456,23.1112 10.64702,28.45623 9.10013,29.43534 -3.09938,1.9618 -18.11732,1.48616 -20.24465,-0.64117 -1.0331,-1.0331 -6.80401,-14.3831 -12.82424,-29.66667 -15.55275,-39.48382 -15.04422,-38.39164 -16.58981,-35.62983 -0.80866,1.445 -0.94512,13.77253 -0.36376,32.86127 0.68786,22.58557 0.52314,31.03946 -0.63189,32.43118 -1.52459,1.83702 -14.40981,2.54317 -18.23575,0.99938 z m 116.00001,0 c -1.30848,-0.52799 -1.66667,-18.65527 -1.66667,-84.34845 v -83.67593 l 4.10982,-8.22446 c 13.62352,-27.26309 55.23778,-25.57552 68.04245,2.7593 l 3.18107,7.03924 0.38212,81.8046 c 0.28921,61.91531 -0.005,82.27098 -1.20985,83.72281 -1.15846,1.39586 -3.9856,1.81214 -10.38212,1.52873 l -8.79015,-0.38947 -0.66666,-82.05968 c -0.61899,-76.19018 -0.83875,-82.32223 -3.07245,-85.73033 -6.42423,-9.80184 -18.90783,-11.51124 -26.75641,-3.66379 l -4.17115,4.17054 -0.36341,82.20792 c -0.2534,57.32377 -0.80732,82.7428 -1.82992,83.97496 -1.42746,1.71998 -13.20028,2.33921 -16.80667,0.88401 z m 519.22707,-0.78607 c -2.22463,-1.62669 -2.33959,-6.45344 -1.96174,-82.36276 l 0.40137,-80.6348 3.68289,-7.49939 c 11.06184,-22.52497 39.14928,-32.00158 61.65045,-20.80065 9.16833,4.56393 14.73523,9.88013 19.44853,18.57264 l 4.55147,8.39406 0.66667,42.66667 0.66666,42.66667 7.33334,0.44207 c 17.0476,1.02766 29.8328,-5.38613 35.5261,-17.82181 3.2119,-7.01571 3.2837,-7.87064 2.8839,-34.34319 -0.4064,-26.91016 -0.4414,-27.19578 -3.9887,-32.55119 -5.0595,-7.63848 -13.4008,-11.37743 -26.9929,-12.09954 l -10.7617,-0.57173 -7.6667,-7.48557 c -4.21667,-4.11706 -7.66667,-8.21759 -7.66667,-9.11228 0,-4.64679 37.07447,-3.96313 49.93257,0.92077 10.0071,3.80101 19.5297,12.57065 24.3845,22.45641 3.6115,7.35394 3.6914,8.04243 4.1201,35.49939 0.522,33.44003 -0.8585,40.98298 -9.2443,50.50976 -2.8561,3.24469 -5.1929,6.34676 -5.1929,6.89348 0,0.54673 2.0991,3.03262 4.6646,5.52421 8.9849,8.72604 9.2894,10.0233 9.7657,41.60064 0.3404,22.5708 0.062,28.76158 -1.3334,29.64625 -2.6872,1.70379 -16.3505,1.37205 -18.1635,-0.441 -1.127,-1.12693 -1.6,-8.75674 -1.6,-25.80531 0,-23.74315 -0.062,-24.27163 -3.2197,-27.67941 -4.3195,-4.66082 -6.6982,-5.08292 -26.1137,-4.63399 l -16.66664,0.38537 -0.36064,28.60486 c -0.26277,20.84213 -0.80552,28.88746 -2,29.64625 -2.78519,1.76928 -16.50828,1.24837 -18.11501,-0.68762 -0.93897,-1.13138 -1.5991,-11.83347 -1.82993,-29.66667 l -0.36108,-27.89682 h -24.00001 -24 l -0.35933,29 -0.35934,29 h -5.86495 c -3.22572,0 -6.68123,0.31324 -7.67892,0.69609 -0.99769,0.38285 -2.87738,-0.0815 -4.17709,-1.03186 z m 65.43964,-79.04022 c 1.28312,-0.41598 1.65992,-9.37144 1.63738,-38.9155 -0.0263,-34.45589 -0.28068,-38.91988 -2.49078,-43.70851 -4.36423,-9.45603 -11.44389,-14 -21.81244,-14 -8.47237,0 -16.41487,4.52857 -20.68635,11.79473 l -3.64782,6.20527 0.40145,39.29674 c 0.22696,22.21606 0.93867,39.62876 1.6374,40.0606 1.33509,0.82514 42.21036,0.15844 44.96116,-0.73333 z m 132.4752,78.88027 c -1.0744,-1.29464 -1.4143,-12.68986 -1.1633,-39 l 0.3548,-37.17095 h 32.6666 32.6667 l 0.4045,6.28795 c 0.7393,11.49121 0.5426,11.59204 -23.4334,12.01168 l -20.9711,0.36704 -0.369,19.66667 -0.3689,19.66667 h 23.9569 c 16.8566,0 24.2428,0.46245 24.9213,1.56033 1.5133,2.4486 0.5429,16.26892 -1.2211,17.39052 -0.8722,0.55457 -16.0624,1.0175 -33.7559,1.02873 -25.6518,0.0163 -32.4777,-0.35019 -33.6881,-1.80864 z m -1.159,-147.78122 0.3505,-47.0564 33.8353,-0.35658 c 23.8438,-0.25128 34.3762,0.0922 35.6667,1.16326 2.6218,2.1759 2.4302,15.0706 -0.2639,17.76475 -1.7448,1.74475 -5.9892,2.09524 -25.3732,2.09524 h -23.2779 l 0.3731,17 0.3732,17 24.3333,0.36341 24.3334,0.36342 v 7.92301 c 0,6.18849 -0.5108,8.19215 -2.3334,9.1524 -1.2833,0.67616 -11.7289,1.07825 -23.2124,0.89352 -11.4836,-0.18472 -21.5031,0.0497 -22.2657,0.52105 -0.7626,0.47131 -1.567,5.04033 -1.7875,10.15339 l -0.401,9.29647 -10.3505,0.38973 -10.3504,0.38972 z m -889.02575,23.97946 c -0.36901,-0.96164 -0.51033,-17.0381 -0.31405,-35.72547 l 0.35688,-33.97705 h 10 10 v 35.33333 35.33334 l -9.68595,0.39213 c -7.05077,0.28545 -9.86848,-0.0835 -10.35688,-1.35628 z m 90.58196,-165.47402 c -2.87202,-2.47041 -3.42889,-3.82477 -2.72528,-6.62818 0.48637,-1.93785 2.12367,-4.18664 3.63845,-4.99732 1.9123,-1.02344 27.97391,-1.54464 85.26271,-1.70516 71.80745,-0.2012 82.75653,0.0282 84.42036,1.76882 3.47535,3.63571 3.74122,7.37353 0.79123,11.12383 l -2.7868,3.54284 h -82.49554 -82.49555 z m 474.12757,0.43816 c -3.36871,-3.36871 -3.41828,-8.23983 -0.11429,-11.2299 2.36787,-2.14289 8.82884,-2.30424 89.37385,-2.23188 58.15624,0.0522 87.68853,0.54202 89.44763,1.48346 1.82402,0.97619 2.62616,2.79345 2.62616,5.94963 0,9.06299 3.90225,8.69536 -92.29668,8.69536 -84.59222,0 -86.42489,-0.0549 -89.03667,-2.66667 z m -651.23813,-2.09524 c -2.70501,-2.705 -2.65321,-5.15631 0.16857,-7.9781 2.05846,-2.05846 6.01198,-2.21042 43.58444,-1.67526 30.21366,0.43035 41.4622,1.01326 41.8473,2.16857 0.28967,0.86902 1.44665,1.58003 2.57107,1.58003 1.38796,0 1.82049,0.85625 1.34705,2.66667 -0.47889,1.83129 -0.005,2.7342 1.51116,2.88225 8.01156,0.78208 -23.60438,2.13102 -53.36292,2.27681 -30.7157,0.15048 -35.85745,-0.11174 -37.66667,-1.92097 z m 940.57145,0.82498 c -9.9184,-0.43427 -15.955,-1.18924 -14.9091,-1.86461 0.9667,-0.62417 1.439,-1.96502 1.0497,-2.97966 -1.5909,-4.14571 4.8179,-4.96351 43.9577,-5.60925 l 38.8286,-0.64061 2.1027,3.00193 c 2.1147,3.0192 1.723,6.52382 -0.9323,8.34204 -1.5583,1.067 -43.4299,0.91776 -70.0973,-0.24984 z"
         id="path45" />
      <path
         style="fill:#1c2a28"
         d="m 555.87641,652.8965 c -3.85945,-2.03831 -7.24928,-5.32027 -9.87638,-9.56211 -3.41031,-5.50645 -4,-7.78386 -4,-15.44829 0,-7.86225 0.50862,-9.71338 4.05546,-14.75991 5.72245,-8.14206 12.66406,-11.74897 22.61121,-11.74897 9.87545,0 16.88427,3.60052 22.4646,11.54035 15.9775,22.73322 -10.67702,52.95935 -35.25489,39.97893 z m 19.47059,-9.48291 c 5.41336,-2.26185 9.97437,-9.06269 9.98139,-14.88306 0.006,-4.93265 -4.77719,-12.5016 -9.36837,-14.82476 -1.81133,-0.91654 -5.61391,-1.67528 -8.45018,-1.6861 -6.86082,-0.0262 -15.5098,8.07812 -15.5098,14.53298 0,6.49968 3.39773,13.11962 8.2531,16.07986 5.23305,3.19051 8.87609,3.37903 15.09386,0.78108 z m 175.16648,10.80724 c -12.06279,-4.46169 -18.51343,-13.53072 -18.51343,-26.02823 0,-20.01972 21.02075,-33.19486 38.62932,-24.21163 6.7802,3.459 7.19721,4.36576 3.92241,8.529 -3.19801,4.06561 -4.61803,4.25032 -10.42078,1.35553 -7.76091,-3.87166 -17.47871,-0.0144 -20.96105,8.32 -3.09438,7.4059 0.95755,17.0768 8.869,21.16797 4.94606,2.55771 8.11764,2.49791 13.9056,-0.26217 4.58423,-2.18607 4.78412,-2.16458 8.00415,0.86048 3.90042,3.66425 3.53339,4.5713 -3.25009,8.03197 -6.96457,3.55305 -14.39944,4.37705 -20.18513,2.23708 z m 85.81991,0.89577 c -1.11728,-0.45058 -1.66667,-3.84394 -1.66667,-10.29436 0,-5.70617 -0.65117,-10.27339 -1.6,-11.22222 -0.88,-0.88 -5.03714,-1.6 -9.2381,-1.6 -10.3586,0 -11.82857,1.6688 -11.82857,13.42857 v 9.2381 h -4.66666 -4.66667 V 627.91554 601.1644 l 4.33333,0.41781 4.33334,0.41781 0.40428,8.61554 c 0.22235,4.73854 1.04582,9.38854 1.82992,10.33333 0.8851,1.06648 4.58788,1.7178 9.7658,1.7178 5.17791,0 8.88069,-0.65132 9.76579,-1.7178 0.7841,-0.94479 1.60757,-5.59479 1.82993,-10.33333 l 0.40428,-8.61554 4.33333,-0.41781 4.33333,-0.41781 v 26.75114 c 0,15.35668 -0.52147,26.75115 -1.22428,26.75115 -0.67336,0 -2.02336,0.25246 -3,0.56103 -0.97664,0.30856 -2.52572,0.25856 -3.44238,-0.11112 z m -394.69488,-26.78325 0.36152,-26.33333 10.91698,-0.38592 c 13.28366,-0.46957 19.26722,1.6295 22.50768,7.89586 1.96269,3.79543 2.04802,5.24669 0.6331,10.76743 -1.55847,6.08085 -1.47292,6.57376 1.82012,10.48732 4.0163,4.77311 4.62702,12.30264 1.37451,16.94625 -3.8656,5.51892 -8.79858,6.95573 -23.88103,6.95573 h -14.0944 z m 28.13853,14.24708 c 4.32246,-6.17117 -0.70966,-10.96888 -10.8224,-10.31828 l -6.28794,0.40454 -0.40639,6.33333 -0.40639,6.33333 h 7.99745 c 6.56949,0 8.34174,-0.49154 9.92567,-2.75292 z m -4.13076,-21.74792 c 3.2455,-4.96693 -0.62739,-9.18292 -7.88653,-8.58519 -4.53409,0.37334 -5.14219,0.85115 -5.54077,4.35361 -0.57952,5.09242 2.87953,7.80459 8.42177,6.60334 2.21427,-0.47993 4.46676,-1.54722 5.00553,-2.37176 z m 41.90931,32.94529 c -1.30391,-1.30391 -1.04611,-48.79871 0.2762,-50.88455 0.63857,-1.00729 2.78981,-1.5833 4.97958,-1.33333 l 3.85533,0.4401 0.36152,26.33333 0.36152,26.33334 h -4.47263 c -2.45995,0 -4.87263,-0.4 -5.36152,-0.88889 z m 120.44445,-18.86737 c 0,-22.13848 -0.11579,-22.44709 -8.68357,-23.14439 -5.10462,-0.41545 -5.31643,-0.61862 -5.31643,-5.09935 v -4.66667 h 18.66667 18.66667 v 4.66667 c 0,4.54321 -0.15874,4.6843 -6.00001,5.33333 l -6,0.66667 -0.66666,20.66666 -0.66667,20.66667 -5,0.41382 -5,0.41382 z m 47.26029,18.04669 c -0.36081,-0.94026 -0.49198,-12.79026 -0.29149,-26.33333 l 0.36454,-24.62377 17.66666,-0.37204 17.66667,-0.37203 v 3.87544 c 0,5.59164 -2.18116,6.69919 -14.06318,7.14101 l -10.60349,0.39429 v 5.27322 c 0,5.93498 1.83337,7.01427 12.33334,7.26054 5.37787,0.12613 5.66667,0.33676 5.66667,4.1329 0,3.94214 -0.10239,4 -7.0785,4 -8.77386,0 -11.97422,2.08279 -11.36922,7.39909 l 0.44771,3.93425 12,0.66666 12.00001,0.66667 0.41781,4.33333 0.41781,4.33334 h -17.45966 c -12.9714,0 -17.6283,-0.43947 -18.11568,-1.70957 z M 334.44414,626.93679 c -8.31227,-0.43627 -10.77745,-2.22884 -10.77745,-7.83689 0,-6.45666 2.65832,-7.09988 29.34249,-7.09988 14.33832,0 25.56913,0.57246 27.0785,1.38024 2.9865,1.59833 3.60375,9.4691 0.91234,11.63365 -1.6937,1.36215 -32.77788,2.64601 -46.55588,1.92288 z m 559.65116,-2.36534 c -2.80978,-2.80978 -2.64935,-7.65667 0.34308,-10.36478 2.08058,-1.8829 5.99303,-2.20665 26.66667,-2.20665 22.78596,0 24.39398,0.16563 27.01055,2.78221 2.93877,2.93877 2.63819,8.81973 -0.55458,10.85068 -0.85853,0.54612 -12.7681,1.00213 -26.46572,1.01336 -20.88168,0.0171 -25.24323,-0.31805 -27,-2.07482 z M 570.6667,573.94793 c -8.52284,-1.28949 -39.99324,-1.74362 -126.90477,-1.83131 -103.18633,-0.10411 -115.79597,-0.34114 -117.66667,-2.21184 -2.52608,-2.52608 -2.71257,-7.2175 -0.41198,-10.36375 1.58012,-2.16094 9.15809,-2.25611 123.66668,-1.55305 150.97402,0.92694 213.49038,0.92688 379.13426,-3.6e-4 97.38171,-0.54513 130.95329,-0.3411 132.33334,0.80424 2.83671,2.35426 2.35397,10.1775 -0.72984,11.82791 -1.72295,0.9221 -44.09996,1.39952 -127.66668,1.43832 -81.02124,0.0376 -127.20137,0.54292 -131.08766,1.43438 -9.46951,2.17218 -116.84625,2.54645 -130.66668,0.45546 z m 2.66667,-42.03753 c -28.29263,-7.38282 -45.68433,-24.18928 -57.85111,-55.90441 -2.76861,-7.21693 -2.82668,-9.29571 -3.48223,-124.67265 L 511.33337,234.00001 H 304.66669 c -193.17767,0 -207.139365,0.15229 -213.908686,2.33333 -8.082437,2.60412 -10.757999,2.8932 -10.757999,1.16237 0,-2.15802 14.225979,-10.9976 23.494335,-14.59864 l 9.17233,-3.56373 h 198.53151 c 197.29546,0 198.53799,-0.0166 199.57296,-2.66667 0.57281,-1.46666 1.08364,-28.03594 1.13518,-59.04282 0.0738,-44.43001 0.4791,-57.29852 1.91241,-60.728927 2.23726,-5.3545 9.25465,-11.442923 14.36747,-12.465486 4.64562,-0.929125 4.75448,-2.426127 0.61897,-8.512075 -9.2456,-13.606116 -7.8666,-34.367752 3.11106,-46.839036 3.32752,-3.78026 8.35391,-7.405495 13.67285,-9.861404 l 8.41096,-3.883588 h 74.66667 74.66667 l 7.33333,3.459102 c 8.42625,3.974626 17.28778,12.312256 20.77876,19.550301 3.04236,6.307888 4.00861,19.829818 1.89545,26.525377 -0.89081,2.822539 -3.09303,7.423579 -4.89383,10.224535 -1.80079,2.800956 -3.08806,5.640933 -2.86061,6.31106 0.22746,0.670127 3.10872,2.578436 6.40281,4.240687 3.29408,1.66225 7.34408,5.061003 9,7.552784 2.95635,4.448638 3.01076,5.246862 3.01076,44.17008 0,31.24546 0.37343,39.94948 1.76346,41.1031 1.2587,1.04463 59.93616,1.57384 205.00001,1.84887 l 203.23658,0.38533 9.9103,3.05325 c 12.4423,3.83334 27.2909,10.65423 35.6559,16.37896 21.3419,14.60579 38.9348,40.52848 45.8771,67.59862 2.7727,10.81164 4.914,40.00333 3.382,46.10703 -1.2875,5.13 -6.4011,7.17908 -10.7707,4.31599 -2.9889,-1.95839 -3.388,-3.13804 -3.388,-10.01448 0,-19.29992 -7.9781,-48.40414 -18.3093,-66.79258 -9.4834,-16.87935 -21.7576,-28.75334 -37.6907,-36.46177 -22.6083,-10.93791 -5.4263,-10.18109 -231.64124,-10.2032 l -201.64127,-0.0197 -0.86637,3.4519 c -0.93284,3.71672 0.0741,16.93645 1.46104,19.18049 0.57156,0.92479 66.76503,1.37399 204.43322,1.38732 213.83552,0.0207 210.32872,-0.0661 224.92132,5.56771 5.8928,2.27507 22,12.80747 22,14.38569 0,1.76635 0.7792,1.8749 -14.2799,-1.98943 l -13.0534,-3.34966 -212.66671,0.34966 -212.66668,0.34966 -0.66666,118 -0.66667,118 -4.17003,11.07876 c -7.73246,20.54325 -22.07039,37.60078 -38.3371,45.60886 -15.49269,7.62703 -18.38962,7.9528 -70.15954,7.88981 -42.57671,-0.0518 -48.33826,-0.31982 -57.33334,-2.66704 z m -14.16383,-29.59477 c -10.67681,-11.27632 -15.8312,-21.01608 -18.08862,-34.18036 l -1.61702,-9.42973 3.82362,-3.99101 c 4.70552,-4.9115 4.99009,-10.54728 0.81755,-16.19095 l -3.00608,-4.06594 0.45052,-110.45526 0.45052,-110.45526 3,-3.19282 c 3.93948,-4.19269 3.83133,-9.64418 -0.27272,-13.74823 -9.56291,-9.56292 -21.72841,3.19349 -14.04506,14.72727 2.6112,3.91979 2.66335,6.19557 2.60052,113.48537 l -0.0641,109.48537 -3.27598,4.44034 c -4.12761,5.59466 -4.11678,8.05175 0.0574,13.01243 2.44917,2.91067 3.33334,5.516 3.33334,9.82217 0,17.76505 10.59793,37.33842 25.26104,46.65477 9.98183,6.34205 10.18678,4.23319 0.57513,-5.91816 z m 89.49717,-37.73476 c 11.90749,-4.24639 23.69924,-12.84008 29.71878,-21.65872 3.0194,-4.4234 6.4875,-10.34046 7.70691,-13.14901 3.25164,-7.48921 4.26682,-35.56879 5.37976,-148.80281 0.96545,-98.22788 0.9706,-98.36389 3.74733,-99.00541 1.52931,-0.35332 9.63167,-0.78996 18.00525,-0.97032 10.49881,-0.22614 15.39129,-0.83001 15.76139,-1.94542 0.29521,-0.88972 -1.15571,-2.06048 -3.2247,-2.60204 -2.06876,-0.5415 -47.79448,-1.01363 -101.61271,-1.04917 -91.18661,-0.0602 -97.95022,0.0918 -99.30337,2.232 -2.79084,4.41414 0.80196,5.48787 20.46238,6.11532 l 18.69231,0.59655 0.14377,66.82908 c 0.0791,36.756 0.55771,91.12909 1.06361,120.82909 l 0.91983,54 c 6.93634,20.20855 21.29661,35.06962 42.29526,40.68503 8.81056,1.86748 32.59416,0.62395 40.2442,-2.10417 z M 632.25614,325.98383 c 1.23372,-20.67787 11.3937,-31.27419 34.63221,-36.11955 12.93421,-2.69686 13.38043,-2.24621 9.10103,9.19151 -4.06003,10.85141 -10.60031,17.53245 -23.81816,24.33079 -6.32748,3.25441 -13.53987,7.56651 -16.02752,9.58242 l -4.52301,3.66531 z m -11.303,3.99766 c -2.04246,-1.79718 -6.98526,-4.2187 -10.984,-5.38116 -12.00362,-3.48955 -19.31586,-9.28985 -24.28924,-19.26699 -2.37607,-4.76666 -4.47607,-10.16666 -4.66666,-12 -0.30106,-2.89591 0.24392,-3.38979 4.15297,-3.76354 2.47473,-0.23661 8.8739,0.54301 14.22039,1.73249 11.55413,2.57055 20.27633,9.24652 23.89428,18.28867 2.52807,6.31826 4.42678,23.76548 2.57921,23.70025 -0.65636,-0.0232 -2.86449,-1.51255 -4.90695,-3.30972 z m 9.75473,-38.31481 c 0.0226,-0.91667 0.60481,-6.0056 1.29369,-11.30874 1.88369,-14.50094 6.72552,-22.37853 16.9203,-27.52911 5.7292,-2.89449 27.28694,-7.83971 28.49312,-6.53615 1.76682,1.90947 -2.19012,13.27763 -6.91464,19.86555 -3.78821,5.28231 -7.1021,7.78137 -17.59047,13.26527 -7.10761,3.71625 -14.60282,8.36625 -16.65601,10.33333 -4.10161,3.9296 -5.60869,4.44859 -5.54599,1.90985 z m -10.0782,-3.5412 c -1.4463,-1.39765 -7.42963,-4.51602 -13.2963,-6.92969 -14.34187,-5.90056 -20.09357,-11.44847 -24.04645,-23.19445 -1.7066,-5.07117 -2.8089,-9.69604 -2.44954,-10.27749 0.9213,-1.49069 7.1595,-1.31263 15.43036,0.44043 18.42607,3.90554 28.20506,15.04286 30.00176,34.16906 0.86182,9.17434 -0.5934,10.66886 -5.63983,5.79214 z M 726.9057,145.62768 c 0.62331,-0.6233 1.27452,-11.59452 1.44715,-24.38048 l 0.31386,-23.247197 -99.18637,-0.341925 c 14.269,0.04919 -99.68045,0.06813 -101,1.16326 -2.50075,2.075442 -2.63323,45.110652 -0.14697,47.743802 1.3667,1.44745 19.28421,1.62392 99.55286,0.98048 53.83741,-0.43157 98.39617,-1.29464 99.01947,-1.91794 z M 575.66048,66.000002 c 0.17991,-8.8 0.64134,-17.350001 1.0254,-19.000001 0.76423,-3.283278 5.09824,-4.120508 6.90213,-1.333333 0.59328,0.916667 1.37869,9.466667 1.74536,19.000001 l 0.66667,17.333334 h 3.33333 3.33333 l 0.66667,-17.603398 c 0.68375,-18.054423 1.60332,-21.050559 6.19171,-20.173721 2.21757,0.423778 2.54429,2.274031 3.14163,17.791708 0.67835,17.622402 1.36762,20.652077 4.69844,20.652077 3.50611,0 4.63489,-5.134425 4.63489,-21.082419 0,-16.48542 1.08666,-19.951844 5.69961,-18.181686 2.98908,1.147016 3.59529,4.86493 3.61552,22.174254 0.017,14.519225 0.2036,15.635661 2.74885,16.443492 5.51774,1.751262 6.60269,-1.218724 6.60269,-18.074518 0,-8.65023 0.36419,-16.676763 0.80932,-17.836741 0.96491,-2.514518 5.25628,-2.794578 6.77865,-0.442383 0.59328,0.916667 1.37869,9.460102 1.74536,18.985411 0.58923,15.307169 0.94512,17.371944 3.06405,17.776768 5.35347,1.022786 6.26928,-1.864082 6.26928,-19.762178 0,-13.490568 0.41352,-17.349998 2.00001,-18.666668 1.59562,-1.324248 2.40437,-1.324248 4,0 1.58649,1.31667 2,5.1761 2,18.666668 0,13.890599 0.38694,17.32795 2.11176,18.759422 1.53085,1.27049 2.72289,1.367791 4.33333,0.353711 1.85559,-1.168439 2.28283,-4.281471 2.59342,-18.896384 0.3222,-15.160954 0.68789,-17.666623 2.73851,-18.764085 5.12065,-2.740487 6.18664,0.150969 6.88964,18.687968 0.5583,14.721191 1.04001,17.813446 2.96331,19.022432 4.44216,2.792347 5.65232,-0.923794 6.36415,-19.542945 0.60333,-15.781227 0.92725,-17.640276 3.1475,-18.064253 4.55435,-0.869691 5.50807,2.134694 6.19171,19.505112 0.76841,19.524256 1.60359,20.552286 11.48594,14.138186 12.8682,-8.352057 16.40612,-23.206611 8.49734,-35.677468 -7.50483,-11.833888 -4.66402,-11.458783 -87.0364,-11.492415 -69.35305,-0.02832 -71.89399,0.05959 -76.99852,2.663724 -10.93167,5.576925 -16.0691,20.290271 -11.37575,32.579629 2.51388,6.58249 11.34671,15.394033 15.43122,15.394033 2.5063,0 2.66283,-0.89622 2.66283,-15.246534 0,-16.784672 1.23815,-22.086801 5.15768,-22.086801 3.69542,0 4.17565,2.363828 4.17565,20.553495 0,8.984468 0.42755,16.762941 0.9501,17.285497 0.52256,0.522556 2.47256,0.772556 4.33334,0.555556 l 3.38323,-0.394546 z M 123.30208,528.0161 C 93.857607,523.68789 63.40683,505.258 47.767209,482.2997 41.040785,472.4256 34.661694,458.94222 34.693817,454.66668 c 0.02317,-3.08354 0.395162,-2.88371 4.964048,2.66667 26.371941,32.03716 59.053185,50.94771 93.008815,53.81825 5.13333,0.43396 87.93333,0.90748 184.00001,1.05226 176.58115,0.26612 190.579,0.63045 195.96504,5.10047 3.26204,2.70725 3.79986,6.67552 1.28183,9.4579 -2.2787,2.51794 -6.27286,2.56768 -193.12019,2.40478 -104.93635,-0.0915 -193.80743,-0.6094 -197.49129,-1.15091 z m 623.65629,-0.25776 c -2.53273,-2.53273 -1.91374,-8.41689 1.18011,-11.21834 4.20325,-3.80599 25.78972,-4.25332 213.19491,-4.41805 95.30841,-0.0838 170.84431,-0.69494 179.33331,-1.451 17.5241,-1.56075 30.8095,-5.05374 45.6383,-11.99916 18.1411,-8.49683 36.5755,-24.41975 47.0344,-40.62649 4.7274,-7.32538 6.0813,-8.68459 6.4071,-6.43226 0.6328,4.3743 -7.1851,21.83756 -14.3144,31.97522 -13.9812,19.88054 -35.3614,34.36674 -61.3134,41.54303 l -12.7853,3.53539 -201.37501,0.35833 c -156.96229,0.27929 -201.73341,-7e-5 -203.00002,-1.26667 z M 115.12838,485.93223 C 85.464071,479.42439 59.50258,460.83572 40.736147,432.66668 26.391583,411.13502 24.076344,403.17357 24.026413,375.20666 c -0.0226,-12.65928 0.325338,-15.11168 2.41191,-17 3.418816,-3.09398 7.830393,-2.7454 10.040515,0.79335 1.104237,1.76806 2.189713,8.47529 2.643332,16.33333 0.423329,7.33334 2.007673,18.13334 3.520765,24.00001 3.201916,12.41469 12.659026,32.4454 18.763989,39.74323 6.13849,7.3379 20.288776,17.64646 32.589829,23.74188 19.347567,9.58709 11.066487,9.19391 212.003267,10.06584 103.92533,0.45097 180.98616,1.29426 182.33334,1.99531 3.33769,1.73688 3.16658,9.91398 -0.24567,11.74016 -1.74504,0.93391 -61.13767,1.33695 -183.66668,1.24636 -146.69944,-0.10845 -182.64578,-0.4757 -189.29263,-1.9339 z m 655.87167,0.45475 c -3.68003,-1.79234 -4.04613,-7.69504 -0.66667,-10.74875 2.0987,-1.89641 21.5063,-2.16115 193.00002,-2.63272 210.9378,-0.58004 196.8591,0.0188 214.5353,-9.12596 11.8823,-6.14733 26.2786,-16.24347 31.668,-22.20883 6.4897,-7.1834 14.9627,-21.94584 18.3258,-31.92902 3.4475,-10.23381 6.7918,-30.50047 6.7989,-41.20171 0,-6.17493 0.5909,-8.65664 2.4437,-10.33333 3.0729,-2.78096 7.4158,-2.82871 10.1331,-0.11141 2.9129,2.91288 2.9344,31.45586 0.032,42.59837 -7.9825,30.64687 -32.9558,61.48457 -61.2703,75.6583 -3.6667,1.83547 -11.7667,5.05716 -18,7.15932 l -11.3334,3.82211 -191.3333,0.25738 c -136.48257,0.18359 -192.19338,-0.16149 -194.33335,-1.20375 z M 117.62906,439.37371 C 101.89694,434.46113 91.525461,420.29955 92.276054,404.75583 l 0.390619,-8.08915 h 8.648307 8.6483 l 1.03618,7.33333 c 1.77408,12.55566 9.46129,19.31792 21.75818,19.14017 8.07596,-0.11674 13.85071,-3.10698 17.35672,-8.98756 3.3171,-5.56372 4.52374,-30.07657 1.59996,-32.50309 -1.23486,-1.02484 -9.10818,-1.70687 -22.47419,-1.94683 l -20.57346,-0.36936 -0.41062,-6.43692 c -0.57181,-8.96385 0.90166,-10.22974 11.90722,-10.22974 5.34793,0 9.17007,-0.5672 9.17007,-1.36081 0,-0.74845 -2.80801,-3.29845 -6.24001,-5.66667 -33.23876,-22.93605 -32.801906,-22.16624 -32.193764,-56.73028 0.425268,-24.17025 0.549306,-25.13521 4.182806,-32.54026 7.388928,-15.05859 20.360048,-21.87334 39.522088,-20.76407 12.04109,0.69705 21.72208,5.23759 28.80158,13.5084 7.28776,8.5141 8.59397,14.48007 8.59397,39.25204 0,19.88418 0.24883,22.23944 2.71557,25.70366 1.49357,2.09752 13.33482,12.38139 26.3139,22.85305 26.56886,21.43605 33.23944,27.66548 34.31363,32.04436 0.40934,1.66865 0.5746,15.93391 0.36725,31.70058 l -0.37701,28.66667 h -8.66667 -8.66667 l -0.66666,-27.78733 c -0.66387,-27.67078 -0.68065,-27.79864 -4,-30.48762 -1.83334,-1.48516 -14.73334,-11.86753 -28.66667,-23.07193 -13.93334,-11.2044 -26.53334,-21.6958 -28,-23.31421 -2.43615,-2.6882 -2.7243,-5.34336 -3.33334,-30.71453 -0.76204,-31.74507 -1.08967,-32.75923 -12.41835,-38.44009 -8.70615,-4.36577 -15.97675,-3.22799 -23.81942,3.7275 l -5.76223,5.11041 -0.42629,22.40287 c -0.30956,16.26896 0.0374,23.26925 1.26719,25.56714 0.93141,1.74036 11.02324,10.27575 22.42629,18.96754 11.40305,8.6918 24.33281,19.07866 28.73281,23.08193 l 8,7.27866 0.42534,20.71213 c 0.38915,18.95041 0.17488,21.29432 -2.51914,27.55673 -3.9594,9.20388 -12.34889,16.43538 -22.30955,19.2302 -9.24292,2.59343 -21.40949,2.68518 -29.30093,0.22096 z m 696.1476,-0.42673 c -9.96331,-3.56124 -15.73773,-8.53158 -19.73965,-16.99095 l -3.49891,-7.39608 0.39764,-71.61331 c 0.39161,-70.52586 0.44148,-71.69428 3.28467,-76.94663 3.76461,-6.95455 11.84232,-14.67379 18.07015,-17.26823 8.06332,-3.35909 21.8663,-2.7227 30.11646,1.38854 12.86848,6.41263 20.72142,20.46137 19.98465,35.75214 l -0.39161,8.12755 h -9.33334 -9.33333 l -0.7278,-10 c -0.83138,-11.42321 -3.2122,-16.05196 -9.88512,-19.21847 -6.00427,-2.8492 -8.83213,-2.66751 -14.18991,0.91171 -9.47118,6.32716 -9.26415,4.34837 -8.32976,79.61776 0.88104,70.97102 1.04777,72.76584 7.05873,75.98281 3.42577,1.83342 12.46864,1.74332 16.65909,-0.16597 4.92751,-2.24513 7.71606,-7.33306 8.61865,-15.72542 l 0.79612,-7.40242 9,-0.39425 9,-0.39425 v 8.7807 c 0,24.68749 -24.05362,41.35561 -47.55673,32.95477 z m -540.8903,-55.89102 c -1.38919,-89.76948 -1.15597,-134.25299 0.71366,-136.12262 1.66614,-1.66615 12.62362,-2.19797 16.29095,-0.79068 1.85717,0.71266 2.10905,5.503 2.10905,40.11111 0,30.54908 0.36594,39.17981 1.64317,38.75407 1.52222,-0.5074 3.74873,-5.97788 18.48151,-45.40855 6.95511,-18.61458 12.95781,-31.9462 14.95625,-33.21686 2.15125,-1.36783 14.4885,-1.28121 16.69446,0.11721 1.40371,0.88985 0.60022,3.88623 -3.83808,14.31292 -7.26814,17.07472 -26.35977,68.35215 -29.03413,77.98162 l -2.07208,7.46084 5.73995,16.53916 c 3.15697,9.09654 10.76998,29.51306 16.91778,45.37004 6.14781,15.85699 11.17784,29.53223 11.17784,30.38942 0,1.08835 -3.10971,1.44106 -10.30763,1.16913 l -10.30763,-0.38942 -13.40245,-33.90337 c -7.37135,-18.64684 -14.1227,-34.14344 -15.00299,-34.43687 -1.2116,-0.40386 -1.68705,7.83472 -1.95658,33.90336 l -0.35606,34.43688 -8.78203,0.38928 -8.78202,0.38929 z m 115.94575,54.89433 c -1.51615,-3.95102 -0.94183,-157.30728 0.61632,-164.57272 4.3678,-20.36633 25.93831,-32.25467 47.33368,-26.0874 6.28264,1.81098 9.27077,3.69641 14.70719,9.27982 11.65871,11.97394 11.24918,8.14546 10.8545,101.47217 l -0.34377,81.29119 -9,0.39425 -9,0.39425 v -80.10374 c 0,-87.60178 0.16982,-85.60571 -7.85795,-92.36064 -8.30708,-6.98994 -19.5094,-5.51122 -26.05601,3.43944 -2.69292,3.68182 -2.76719,5.54981 -3.41938,86 l -0.66666,82.23644 -8.16792,0.39266 c -6.55325,0.31504 -8.3324,-0.036 -9,-1.77572 z m 519.74307,0.29194 c -0.37099,-0.96678 -0.50216,-38.01678 -0.29149,-82.33333 0.4321,-90.8961 -0.23999,-85.03469 11.14609,-97.20734 20.67002,-22.09791 58.53134,-17.31513 72.21738,9.12277 l 4.3529,8.40867 v 40.44112 c 0,22.24262 0.3642,41.3902 0.80932,42.55017 0.65215,1.69947 3.06123,2.10905 12.40492,2.10905 9.7892,0 12.67,-0.53541 18.4927,-3.437 14.7545,-7.35248 17.6264,-15.16333 17.6264,-47.93937 0,-30.67847 -1.9953,-36.15632 -15.5928,-42.80897 -6.0374,-2.95381 -9.4604,-3.70179 -17.2829,-3.77654 l -9.7545,-0.0932 -7.35158,-7.26024 c -4.04335,-3.99313 -7.35156,-8.09361 -7.35156,-9.11216 0,-1.52372 3.72166,-1.76077 21.00004,-1.33759 19.7392,0.48344 21.5043,0.74471 29.4006,4.35199 10.3071,4.7086 19.0209,13.93058 22.861,24.19427 2.4472,6.54077 2.7384,10.33593 2.7384,35.69799 0,32.43903 -0.9177,36.97696 -9.4335,46.65147 -2.8783,3.26988 -5.2332,6.5623 -5.2332,7.31651 0,0.7542 1.763,2.6266 3.9177,4.1609 2.1547,1.5343 5.4675,5.9574 7.3618,9.82912 3.4054,6.96039 3.44,7.34579 3.0823,34.30116 l -0.3618,27.26168 h -8.6667 -8.6666 l -0.6667,-24.66667 c -0.7362,-27.23847 -1.3957,-29.7146 -8.7312,-32.77955 -5.8338,-2.43751 -36.62506,-2.66419 -39.00214,-0.28712 -1.1445,1.1445 -1.6,9.70243 -1.6,30.06092 v 28.46092 l -9,-0.39425 -9,-0.39425 -0.36108,-27.89683 c -0.23458,-18.12274 -0.88444,-28.52742 -1.85483,-29.69666 -1.17239,-1.41265 -6.54467,-1.72168 -24.97225,-1.43651 l -23.47851,0.36333 -0.36108,27.89682 c -0.23083,17.8332 -0.89096,28.53528 -1.82993,29.66667 -1.98505,2.39184 -15.65018,2.40179 -16.5672,0.0121 z m 67.35257,-77.48843 c 1.17026,-1.41007 1.47603,-12.18686 1.16326,-41 -0.45703,-42.10457 -0.62438,-43.15328 -7.98246,-50.02349 -3.76622,-3.5165 -11.84892,-7.0665 -16.06566,-7.0562 -9.70461,0.0237 -21.08644,7.24682 -24.57477,15.59558 -1.3742,3.28891 -1.80139,13.59665 -1.80139,43.46527 0,21.53467 0.4,39.55394 0.88888,40.04283 0.48889,0.48889 11.21543,0.88889 23.83675,0.88889 18.30695,0 23.26891,-0.38686 24.53539,-1.91288 z m 131.62785,78.35732 c -0.4889,-0.48888 -0.8889,-17.59974 -0.8889,-38.02413 v -37.13524 l 31.6667,0.35746 31.6667,0.35747 v 7.33333 7.33333 l -20.5735,0.36936 c -12.6514,0.22713 -21.2644,0.9428 -22.3679,1.8586 -1.3863,1.15058 -1.7107,5.91786 -1.4265,20.96397 l 0.3679,19.47474 24.6666,0.66667 24.6667,0.66667 0.4261,5.20623 c 0.2344,2.86343 0.073,6.61343 -0.3587,8.33334 l -0.7849,3.12709 h -33.0857 c -18.1971,0 -33.4857,-0.4 -33.9746,-0.88889 z m 0.056,-101.27694 c -0.5199,-0.5199 -0.9453,-21.55541 -0.9453,-46.74557 v -45.80029 l 34.3334,0.35584 34.3333,0.35585 v 8.66666 8.66667 l -24.6667,0.66667 -24.6666,0.66666 v 17.33334 17.33333 l 24,0.66667 24,0.66667 v 8 8 l -24,0.66666 -24,0.66667 -0.6667,10 -0.6667,10 -8.0547,0.38973 c -4.4301,0.21434 -8.4801,-0.0357 -9,-0.55556 z M 28.373225,318.63988 c -4.123717,-1.65931 -4.883008,-6.10787 -3.954421,-23.1683 3.044206,-55.92949 35.018002,-97.04717 86.914536,-111.7704 l 10.66667,-3.02618 178.28415,-0.36567 178.28415,-0.36567 2.11003,3.22032 c 1.73208,2.64349 1.81962,7.81958 0.17715,10.47452 -0.10384,0.16785 -81.4888,0.61785 -180.85547,1 l -180.66668,0.69484 -11.68162,4.17965 c -16.574998,5.93048 -25.351769,11.52971 -38.383313,24.48702 -10.204,10.14587 -11.989221,12.69189 -17.038444,24.29967 -6.177365,14.20129 -13.563294,47.03847 -13.563294,60.30119 0,5.97831 -0.519087,7.61151 -2.963342,9.32353 -3.347231,2.3445 -3.294478,2.33935 -7.330102,0.71548 z m 194.626785,-2.31481 -5.66666,-0.47839 v -34.5646 -34.5646 l 3.10695,-0.7798 c 1.70882,-0.42888 5.75882,-0.59031 9,-0.35873 l 5.89305,0.42106 0.35547,35 c 0.19551,19.25 -0.10449,35.04459 -0.66667,35.09908 -0.56217,0.0545 -2.22214,0.23527 -3.6888,0.40173 -1.46667,0.16645 -5.21667,0.0874 -8.33334,-0.17575 z M 866.79108,152.33345 c -58.74694,-0.24978 -83.7355,-0.79077 -85,-1.84021 -2.85848,-2.37233 -2.18585,-8.73215 1.17231,-11.0843 2.60686,-1.82591 13.19314,-2.0756 88.00001,-2.0756 83.25888,0 85.09241,0.0558 87.70333,2.66666 1.46666,1.46667 2.66666,3.59394 2.66666,4.72728 0,2.98131 -6.13086,8.66201 -8.93939,8.283 -1.31667,-0.17768 -39.83798,-0.48225 -85.60292,-0.67683 z m -558.02916,-2.42868 c -2.85361,-2.85362 -2.63161,-6.70172 0.57143,-9.90477 2.60838,-2.60837 4.44445,-2.66666 84.00001,-2.66666 79.55556,0 81.39162,0.0583 84,2.66666 3.32154,3.32154 3.4054,6.91816 0.22835,9.79335 C 475.34837,151.7964 467.54491,152 392.99028,152 c -72.88869,0 -82.36895,-0.23582 -84.22836,-2.09523 z"
         id="path44" />
    </g>
  </g>
</svg>
