<?xml version="1.0" encoding="UTF-8" standalone="no"?>
<!-- Created with Inkscape (http://www.inkscape.org/) -->

<svg
   version="1.1"
   id="svg1"
   width="1227.3705"
   height="640.64349"
   viewBox="0 0 1227.3704 640.6435"
   xmlns="http://www.w3.org/2000/svg"
   xmlns:svg="http://www.w3.org/2000/svg">
  <defs
     id="defs1" />
  <g
     id="g1"
     transform="translate(-9.6367019,-726.4284)">
    <path
       style="fill:#1c2a28"
       d="m 541.84164,1363.9916 c -13.64776,-7.2079 -18.60311,-27.2748 -9.82092,-39.7703 14.54753,-20.6987 47.23842,-12.8203 49.6193,11.9579 2.10451,21.9021 -20.74914,37.8729 -39.79838,27.8124 z m 19.47059,-9.4829 c 16.63142,-6.9491 10.54651,-31.3239 -7.83716,-31.394 -6.86082,-0.026 -15.5098,8.0782 -15.5098,14.533 0,13.6801 11.34707,21.8748 23.34696,16.861 z m 175.16648,10.8072 c -28.92839,-10.6998 -22.4351,-52.8875 8.14014,-52.8875 6.36377,0 16.06691,3.5177 17.90446,6.4909 2.9097,4.708 -6.21137,9.1421 -12.42708,6.0413 -10.71212,-5.3439 -24.69753,5.1513 -21.9591,16.479 2.88324,11.9268 13.52572,17.6332 23.77265,12.7468 4.78103,-2.28 12.77558,1.5862 10.59061,5.1216 -3.13037,5.065 -18.7936,8.6814 -26.02168,6.0079 z m 85.81991,0.8958 c -1.11728,-0.4506 -1.66667,-3.844 -1.66667,-10.2944 0,-11.6923 -0.95506,-12.8222 -10.8381,-12.8222 -10.3586,0 -11.82857,1.6688 -11.82857,13.4286 v 9.2381 h -4.66666 -4.66667 v -26.7512 -26.7511 l 4.33333,0.4178 4.33334,0.4178 0.40428,8.6155 c 0.52279,11.141 1.39852,12.0512 11.59572,12.0512 10.1972,0 11.07293,-0.9102 11.59572,-12.0512 l 0.40428,-8.6155 4.33333,-0.4178 4.33333,-0.4178 v 26.7511 c 0,15.3567 -0.52147,26.7512 -1.22428,26.7512 -0.67336,0 -2.02336,0.2524 -3,0.561 -0.97664,0.3085 -2.52572,0.2585 -3.44238,-0.1111 z m -394.69488,-26.7833 0.36152,-26.3333 10.91698,-0.3859 c 18.92138,-0.6689 26.52399,5.4627 23.14078,18.6633 -1.55847,6.0808 -1.47292,6.5737 1.82012,10.4873 11.03548,13.1149 0.8782,23.902 -22.50652,23.902 h -14.0944 z m 28.13853,14.2471 c 4.32246,-6.1712 -0.70966,-10.9689 -10.8224,-10.3183 l -6.28794,0.4046 -0.40639,6.3333 -0.40639,6.3333 h 7.99745 c 6.56949,0 8.34174,-0.4915 9.92567,-2.7529 z m -4.13076,-21.7479 c 3.2455,-4.967 -0.62739,-9.1829 -7.88653,-8.5852 -6.00848,0.4947 -8.19875,6.6717 -3.56671,10.0587 2.67142,1.9534 9.81451,1.0344 11.45324,-1.4735 z m 41.90931,32.9453 c -4.97592,-4.976 -0.15875,-52.836 5.25578,-52.2179 l 3.85533,0.4401 0.36152,26.3333 0.36152,26.3334 h -4.47263 c -2.45995,0 -4.87263,-0.4 -5.36152,-0.8889 z m 120.44445,-18.8674 c 0,-22.1385 -0.11579,-22.4471 -8.68357,-23.1444 -5.10462,-0.4154 -5.31643,-0.6186 -5.31643,-5.0993 v -4.6667 h 18.66667 18.66667 v 4.6667 c 0,4.5432 -0.15874,4.6843 -6.00001,5.3333 l -6,0.6667 -0.66666,20.6666 -0.66667,20.6667 -5,0.4138 -5,0.4138 z m 47.26029,18.0467 c -0.36081,-0.9403 -0.49198,-12.7903 -0.29149,-26.3333 l 0.36454,-24.6238 17.66666,-0.3721 17.66667,-0.372 v 3.8755 c 0,5.5916 -2.18116,6.6991 -14.06318,7.141 l -10.60349,0.3943 v 5.2732 c 0,5.935 1.83337,7.0142 12.33334,7.2605 9.95444,0.2335 8.58314,8.1329 -1.41183,8.1329 -8.77386,0 -11.97422,2.0828 -11.36922,7.3991 l 0.44771,3.9343 12,0.6666 12.00001,0.6667 0.41781,4.3333 0.41781,4.3334 h -17.45966 c -12.9714,0 -17.6283,-0.4395 -18.11568,-1.7096 z m -340.81619,-26.0203 c -10.21879,-0.5364 -15.10316,-8.2325 -8.35595,-13.1662 8.52582,-6.2342 56.5785,-1.6086 56.5785,5.4464 0,7.031 -15.14644,9.4557 -48.22255,7.7198 z m 559.65116,-2.3654 c -2.80978,-2.8098 -2.64935,-7.6567 0.34308,-10.3648 4.13861,-3.7454 49.84632,-3.2553 53.67722,0.5756 2.9388,2.9388 2.6382,8.8197 -0.5546,10.8507 -3.3641,2.1399 -51.2143,1.1899 -53.4657,-1.0615 z m -323.4286,-50.6235 c -8.52284,-1.2895 -39.99324,-1.7436 -126.90477,-1.8313 -125.7342,-0.1269 -119.76191,0.2367 -119.76191,-7.2903 0,-8.1418 -8.79491,-7.662 125.34994,-6.8384 150.97402,0.927 213.49038,0.9269 379.13426,-3e-4 141.34008,-0.7912 134.18248,-1.1537 134.18248,6.7954 0,7.4586 4.4051,7.2125 -130.24566,7.2751 -81.02124,0.038 -127.20137,0.5429 -131.08766,1.4343 -9.46951,2.1722 -116.84625,2.5465 -130.66668,0.4555 z m 2.66667,-42.0375 c -28.29263,-7.3829 -45.68433,-24.1893 -57.85111,-55.9044 -2.76861,-7.217 -2.82668,-9.2958 -3.48223,-124.6727 L 497.2986,945.09508 H 290.63192 c -193.177669,0 -207.139369,0.15229 -213.908689,2.33333 -18.79231,6.05478 -7.92656,-5.4081 12.73634,-13.43627 l 9.17233,-3.56373 H 297.16341 c 197.29546,0 198.53799,-0.0166 199.57296,-2.66667 0.57281,-1.46666 1.08364,-28.03594 1.13518,-59.04282 0.10965,-65.96512 1.03965,-70.14637 16.27988,-73.19441 4.64562,-0.92913 4.75448,-2.42613 0.61897,-8.51208 -13.17987,-19.39592 -5.13286,-46.58082 16.78391,-56.70044 l 8.41096,-3.88359 h 74.66667 74.66667 l 7.33333,3.4591 c 22.86313,10.78444 30.82829,36.0055 17.78038,56.30022 -4.04708,6.29483 -3.87441,6.8092 3.5422,10.55174 11.9224,6.01626 12.01076,6.39676 12.01076,51.72287 0,31.24546 0.37343,39.94948 1.76346,41.1031 1.2587,1.04463 59.93616,1.57384 204.99999,1.84887 l 203.23657,0.38533 9.9103,3.05325 c 55.9882,17.24932 97.3367,80.59269 84.915,130.08462 -2.7658,11.0201 -14.1587,6.4348 -14.1587,-5.6985 0,-43.45904 -24.0454,-87.79476 -56,-103.25435 -22.6083,-10.93791 -5.4263,-10.18109 -231.64117,-10.2032 l -201.64131,-0.0197 -0.86637,3.4519 c -0.93284,3.71672 0.0741,16.93645 1.46104,19.18049 0.57156,0.92479 66.76503,1.37399 204.43324,1.38732 233.74037,0.0226 216.33227,-0.91776 237.92127,12.85259 13.9492,8.89737 13.0115,9.80516 -5.2799,5.11138 l -13.0534,-3.34966 -212.66667,0.34966 -212.66669,0.34966 -0.66666,118.00001 -0.66667,118 -4.17003,11.0787 c -10.05831,26.7225 -29.18863,45.0471 -53.89043,51.6208 -12.31302,3.2768 -98.69166,2.6678 -111.93955,-0.7891 z m -14.16383,-29.5948 c -10.67681,-11.2763 -15.8312,-21.0161 -18.08862,-34.1804 l -1.61702,-9.4297 3.82362,-3.991 c 4.70552,-4.9115 4.99009,-10.5473 0.81755,-16.191 l -3.00608,-4.0659 0.45052,-110.4553 0.45052,-110.45521 3,-3.19282 c 8.69631,-9.25527 -4.66234,-22.81342 -13.91406,-14.12188 -3.85363,3.6203 -4.0156,9.67898 -0.40372,15.10092 2.6112,3.91979 2.66335,6.19557 2.60052,113.48539 l -0.0641,109.4853 -3.27598,4.4404 c -4.12761,5.5946 -4.11678,8.0517 0.0574,13.0124 2.44917,2.9107 3.33334,5.516 3.33334,9.8222 0,17.765 10.59793,37.3384 25.26104,46.6548 9.98183,6.342 10.18678,4.2331 0.57513,-5.9182 z m 89.49717,-37.7348 c 16.80237,-5.9919 30.40899,-18.6468 37.42569,-34.8077 3.25164,-7.4892 4.26682,-35.5688 5.37976,-148.8028 0.96545,-98.22788 0.9706,-98.36389 3.74733,-99.00541 1.52931,-0.35332 9.63167,-0.78996 18.00525,-0.97032 15.33505,-0.3303 20.91515,-2.35438 12.53669,-4.54746 -9.0858,-2.37822 -199.37288,-1.25796 -200.91608,1.18283 -2.79084,4.41414 0.80196,5.48787 20.46238,6.11532 l 18.69231,0.59655 0.14377,66.82908 c 0.0791,36.756 0.55771,91.12911 1.06361,120.82911 l 0.91983,54 3.80294,9.1451 c 11.12597,26.7552 47.80323,40.467 78.73652,29.4357 z m -16.41057,-138.597 c 1.23372,-20.6779 11.3937,-31.2742 34.63221,-36.1196 12.93421,-2.69681 13.38043,-2.24616 9.10103,9.1916 -4.06003,10.8514 -10.60031,17.5324 -23.81816,24.3307 -6.32748,3.2545 -13.53987,7.5666 -16.02752,9.5825 l -4.52301,3.6653 z m -11.303,3.9977 c -2.04246,-1.7972 -6.98526,-4.2187 -10.984,-5.3812 -19.03829,-5.5346 -38.96388,-33.6766 -24.80293,-35.0305 22.44061,-2.14561 39.22602,12.0202 41.12821,34.7096 0.83128,9.9154 0.20588,10.583 -5.34128,5.7021 z m 9.75473,-38.3149 c 0.68158,-27.59345 8.61367,-37.7569 34.10666,-43.70109 13.40829,-3.1264 14.12688,-2.79434 11.95835,5.52602 -2.96423,11.37339 -9.40486,18.37242 -23.86301,25.93194 -7.10761,3.71625 -14.60282,8.36625 -16.65601,10.33333 -4.10161,3.9296 -5.60869,4.4486 -5.54599,1.9098 z m -10.0782,-3.54115 c -1.4463,-1.39765 -7.42963,-4.51602 -13.2963,-6.92969 -19.52157,-8.03161 -36.39427,-34.52912 -21.98694,-34.52912 23.30628,0 38.84476,13.54263 40.92307,35.66667 0.86182,9.17429 -0.5934,10.66889 -5.63983,5.79214 z m 106.27603,-142.4978 c 0.62331,-0.6233 1.27452,-11.59452 1.44715,-24.38048 l 0.31386,-23.2472 -99.18637,-0.34192 c -72.16539,-0.24878 -99.68045,0.0681 -101,1.16326 -2.50075,2.07544 -2.63323,45.11065 -0.14697,47.7438 1.9303,2.04436 196.50912,1.12575 198.57233,-0.93746 z M 561.62571,777.09507 c 0.39522,-19.33142 0.91514,-22 4.28627,-22 4.08073,0 4.68021,2.30001 5.38662,20.66667 l 0.66667,17.33333 h 3.33333 3.33333 l 0.66667,-17.6034 c 0.68375,-18.05442 1.60332,-21.05056 6.19171,-20.17372 2.21757,0.42378 2.54429,2.27403 3.14163,17.79171 0.67835,17.6224 1.36762,20.65208 4.69844,20.65208 3.50611,0 4.63489,-5.13443 4.63489,-21.08242 0,-16.48542 1.08666,-19.95185 5.69961,-18.18169 2.98908,1.14702 3.59529,4.86493 3.61552,22.17426 0.017,14.51922 0.2036,15.63566 2.74885,16.44349 5.51774,1.75126 6.60269,-1.21873 6.60269,-18.07452 0,-17.46471 0.50552,-19.94579 4.06396,-19.94579 3.95228,0 4.56716,2.40984 5.26937,20.65208 0.58923,15.30717 0.94512,17.37194 3.06405,17.77677 5.35347,1.02278 6.26928,-1.86409 6.26928,-19.76218 0,-18.17439 1.38843,-22.49394 6.00001,-18.66667 1.58649,1.31667 2,5.1761 2,18.66667 0,18.26672 1.36426,22.31247 6.44509,19.11313 1.85559,-1.16844 2.28283,-4.28147 2.59342,-18.89638 0.3222,-15.16096 0.68789,-17.66663 2.73851,-18.76409 5.12065,-2.74049 6.18664,0.15097 6.88964,18.68797 0.5583,14.72119 1.04001,17.81345 2.96331,19.02243 4.44216,2.79235 5.65232,-0.92379 6.36415,-19.54294 0.60333,-15.78123 0.92725,-17.64028 3.1475,-18.06426 4.55435,-0.86969 5.50807,2.1347 6.19171,19.50512 0.76841,19.52425 1.60359,20.55228 11.48594,14.13818 17.21686,-11.17454 16.55168,-36.5317 -1.16933,-44.57589 -8.98228,-4.07737 -146.3609,-4.01531 -154.36825,0.0697 -15.58135,7.94901 -17.6249,30.79244 -3.86662,43.22222 9.37625,8.47089 10.58492,7.27248 10.58492,-10.49509 0,-16.78468 1.23815,-22.0868 5.15768,-22.0868 3.69542,0 4.17565,2.36382 4.17565,20.55349 0,17.68123 0.22213,18.43129 5.28344,17.84105 l 3.38323,-0.39454 z m -452.3584,462.01613 c -29.444479,-4.3282 -59.895249,-22.7581 -75.534869,-45.7164 -11.80575,-17.3304 -18.31175,-37.3605 -8.10935,-24.9664 26.37194,32.0372 59.05319,50.9477 93.008819,53.8183 5.13333,0.4339 87.93333,0.9074 184.00001,1.0522 176.58115,0.2661 190.579,0.6305 195.96504,5.1005 3.26204,2.7072 3.79986,6.6755 1.28183,9.4579 -2.43098,2.6862 -372.77995,3.875 -390.61148,1.2539 z m 623.65629,-0.2578 c -2.53273,-2.5327 -1.91374,-8.4169 1.18011,-11.2183 4.20325,-3.806 25.78972,-4.2534 213.19492,-4.4181 169.35517,-0.1488 186.25857,-0.6074 203.99997,-5.5343 27.7757,-7.7134 53.513,-26.0846 68.006,-48.5423 7.5316,-11.6706 8.8522,-8.4576 2.6487,6.444 -12.3042,29.556 -38.0684,51.2953 -71.8694,60.642 l -12.7853,3.5353 -201.37497,0.3584 c -156.9623,0.2793 -201.73342,-1e-4 -203.00003,-1.2667 z m -631.82999,-41.8261 c -35.141559,-7.7095 -66.413529,-33.7951 -84.978899,-70.8856 -6.3099095,-12.6061 -8.8918795,-52.1515 -3.71116,-56.84 7.34277,-6.6451 11.64709,-0.8331 12.68385,17.1267 2.41854,41.8965 20.25294,70.3294 54.87458,87.4851 19.34757,9.5871 11.06649,9.1939 212.003269,10.0659 103.92533,0.4509 180.98616,1.2942 182.33334,1.9953 3.33769,1.7369 3.16658,9.914 -0.24567,11.7401 -4.25186,2.2756 -362.46299,1.6152 -372.95931,-0.6875 z m 655.87167,0.4547 c -3.68003,-1.7923 -4.04613,-7.695 -0.66667,-10.7487 2.0987,-1.8964 21.5063,-2.1612 193.00002,-2.6327 210.93777,-0.5801 196.85907,0.019 214.53527,-9.126 38.3397,-19.835 56.7633,-50.7632 56.7927,-95.3395 0.01,-11.1403 6.4941,-16.5274 12.5768,-10.4448 2.9129,2.9129 2.9344,31.4559 0.032,42.5984 -9.9405,38.1642 -40.0072,69.5763 -79.2703,82.8176 l -11.3334,3.8221 -191.33327,0.2574 c -136.48257,0.1836 -192.19338,-0.1615 -194.33335,-1.2038 z m -653.37099,-47.0132 c -15.732119,-4.9126 -26.103599,-19.0742 -25.353009,-34.6179 l 0.39062,-8.0892 h 8.64831 8.6483 l 1.03618,7.3334 c 4.457049,31.5438 40.857319,25.1578 42.103149,-7.3865 0.65923,-17.2209 1.74546,-16.4511 -23.86248,-16.9108 l -20.573459,-0.3694 -0.41062,-6.4369 c -0.57181,-8.9639 0.90166,-10.2298 11.907219,-10.2298 10.88565,0 11.38357,-1.1942 2.93006,-7.0274 -33.238759,-22.9361 -32.801909,-22.1663 -32.193769,-56.7303 1.33943,-76.12672 81.100449,-76.66163 81.100449,-0.5439 0,26.8893 -2.02563,23.5011 29.02947,48.5567 38.4994,31.0617 35.19069,24.9802 34.68088,63.7449 l -0.37701,28.6667 h -8.66667 -8.66667 l -0.66666,-27.7873 c -0.66387,-27.6708 -0.68065,-27.7987 -4,-30.4876 -1.83334,-1.4852 -14.73334,-11.8676 -28.66667,-23.072 -34.32051,-27.5986 -30.5425,-21.0841 -31.33334,-54.0287 -0.76204,-31.74507 -1.08967,-32.75923 -12.41835,-38.44009 -8.70615,-4.36577 -15.97675,-3.22799 -23.81942,3.7275 l -5.762229,5.11041 -0.42629,22.40288 c -0.52735,27.7146 -1.99672,24.9527 23.693479,44.5347 11.40305,8.6918 24.33281,19.0786 28.73281,23.0819 l 8,7.2787 0.42534,20.7121 c 0.80304,39.1056 -20.41813,57.5348 -54.12962,47.0079 z m 696.1476,-0.4268 c -9.96331,-3.5612 -15.73773,-8.5315 -19.73965,-16.9909 l -3.49891,-7.3961 0.39764,-71.6133 c 0.39161,-70.52585 0.44148,-71.69427 3.28467,-76.94662 18.9092,-34.93189 70.09301,-20.01141 68.17126,19.87245 l -0.39161,8.12757 h -9.33334 -9.33333 l -0.7278,-10.00002 c -1.62756,-22.3627 -21.59515,-29.24758 -30.92324,-10.66242 -3.07617,6.12891 -1.9958,136.65054 1.18329,142.95624 7.1329,14.1479 27.79434,6.5638 29.67163,-10.8914 l 0.79612,-7.4024 9,-0.3943 9,-0.3942 v 8.7807 c 0,24.6875 -24.05362,41.3556 -47.55673,32.9547 z m -540.8903,-55.891 c -2.13289,-137.82774 -2.13946,-137.72259 8.60461,-137.72259 11.33136,0 10.50905,-3.20193 10.50905,40.92043 0,50.67026 -1.47642,51.15846 20.12468,-6.65448 12.21614,-32.69515 13.25363,-34.22512 23.20865,-34.22512 10.83256,0 10.97388,0.47388 4.60398,15.43839 -7.26814,17.07472 -26.35977,68.35217 -29.03413,77.98157 l -2.07208,7.4609 5.73995,16.5391 c 3.15697,9.0966 10.76998,29.5131 16.91778,45.3701 13.60409,35.0889 13.51992,32.0364 0.87021,31.5585 l -10.30763,-0.3894 -13.40245,-33.9034 c -17.05916,-43.1534 -16.51909,-43.1365 -16.95957,-0.5335 l -0.35606,34.4369 -8.78203,0.3893 -8.78202,0.3893 z m 115.94575,54.8944 c -1.51615,-3.9511 -0.94183,-157.30732 0.61632,-164.57276 5.92528,-27.6286 41.99125,-37.39929 62.04087,-16.80758 11.65871,11.97394 11.24918,8.14546 10.8545,101.47214 l -0.34377,81.2912 -9,0.3943 -9,0.3942 v -80.1037 c 0,-87.6018 0.16982,-85.60573 -7.85795,-92.36066 -8.30708,-6.98994 -19.5094,-5.51122 -26.05601,3.43944 -2.69292,3.68182 -2.76719,5.54981 -3.41938,86.00002 l -0.66666,82.2364 -8.16792,0.3927 c -6.55325,0.315 -8.3324,-0.036 -9,-1.7757 z m 519.74309,0.2919 c -2.1828,-5.6882 0.1586,-163.05201 2.5003,-168.0467 15.2759,-32.58231 64.1872,-34.02176 80.5717,-2.3712 l 4.3529,8.40867 v 40.44113 c 0,48.9682 -1.275,44.6592 13.2142,44.6592 28.38027,0 36.11907,-11.0078 36.11907,-51.3764 0,-36.54113 -6.9133,-46.33738 -32.87567,-46.58547 l -9.7545,-0.0932 -7.3516,-7.26024 c -11.0792,-10.94156 -10.9351,-11.05185 13.6485,-10.44975 44.37247,1.08675 54.99997,13.5005 54.99997,64.24426 0,32.439 -0.9177,36.9769 -9.4335,46.6515 -6.2697,7.1227 -6.3573,7.8873 -1.3155,11.4774 9.1517,6.5166 10.8481,13.6844 10.4441,44.1302 l -0.3618,27.2617 h -8.6667 -8.6666 l -0.6667,-24.6666 c -0.9239,-34.1833 -1.3379,-34.6667 -29.6905,-34.6667 -21.27997,0 -19.64277,-2.6389 -19.64277,31.6609 v 28.4609 l -9,-0.3942 -9,-0.3943 -0.3611,-27.8968 c -0.4496,-34.7302 2.262,-31.5833 -26.8271,-31.1332 l -23.4785,0.3634 -0.3611,27.8968 c -0.2308,17.8332 -0.891,28.5353 -1.8299,29.6666 -1.9851,2.3919 -15.6502,2.4018 -16.5672,0.012 z m 67.3525,-77.4884 c 2.7022,-3.256 1.3815,-78.92248 -1.4676,-84.08715 -10.272,-18.61998 -37.9453,-17.65545 -45.992,1.60301 -1.9102,4.57167 -2.7526,81.66794 -0.9125,83.50814 1.9367,1.9367 46.7014,0.989 48.3721,-1.024 z m 131.62787,78.3573 c -0.4889,-0.4889 -0.8889,-17.5998 -0.8889,-38.0241 v -37.1353 l 31.6667,0.3575 31.6667,0.3574 v 7.3334 7.3333 l -20.5735,0.3694 c -26.0277,0.4672 -24.2489,-1.2389 -23.7944,22.8225 l 0.3679,19.4748 24.6666,0.6666 24.6667,0.6667 0.4261,5.2062 c 0.2344,2.8635 0.073,6.6135 -0.3587,8.3334 l -0.7849,3.1271 h -33.0857 c -18.1971,0 -33.4857,-0.4 -33.9746,-0.8889 z m 0.056,-101.277 c -0.5199,-0.5199 -0.9453,-21.5554 -0.9453,-46.7455 v -45.80031 l 34.3334,0.35584 34.3333,0.35585 v 8.66666 8.66667 l -24.6667,0.66667 -24.6666,0.66666 v 17.33334 17.33332 l 24,0.6667 24,0.6666 v 8 8 l -24,0.6667 -24,0.6667 -0.6667,10 -0.6667,10 -8.0547,0.3897 c -4.4301,0.2143 -8.4801,-0.036 -9,-0.5556 z M 14.338451,1029.7349 c -4.12371,-1.6593 -4.8830095,-6.1078 -3.95442,-23.1683 3.04421,-55.92944 35.018,-97.04712 86.91454,-111.77035 l 10.666669,-3.02618 178.28415,-0.36567 178.28415,-0.36567 2.11003,3.22032 c 1.73208,2.64349 1.81962,7.81958 0.17715,10.47452 -0.10384,0.16785 -81.4888,0.61785 -180.85547,1 l -180.66668,0.69484 -11.681619,4.17965 c -42.32848,15.14499 -68.98505,57.29774 -68.98505,109.08784 0,9.3406 -3.51347,12.7672 -10.29345,10.039 z m 194.626789,-2.3148 -5.66666,-0.4784 v -34.56455 -34.5646 l 3.10695,-0.7798 c 1.70882,-0.42888 5.75882,-0.59031 9,-0.35873 l 5.89305,0.42106 0.35547,35 c 0.19551,19.25002 -0.10449,35.04462 -0.66667,35.09912 -0.56217,0.055 -2.22214,0.2352 -3.6888,0.4017 -1.46667,0.1664 -5.21667,0.087 -8.33334,-0.1758 z M 852.75631,863.42852 c -88.70142,-0.37714 -86.79103,-0.22113 -86.79103,-7.08777 0,-8.13877 -2.60311,-7.91234 90.96335,-7.91234 92.7587,0 90.37,-0.19544 90.37,7.39394 0,2.98131 -6.1309,8.66201 -8.9394,8.283 -1.3167,-0.17768 -39.838,-0.48225 -85.60292,-0.67683 z m -558.02916,-2.42868 c -2.85361,-2.85362 -2.63161,-6.70172 0.57143,-9.90477 2.60838,-2.60837 4.44445,-2.66666 84.00001,-2.66666 79.55556,0 81.39162,0.0583 84,2.66666 3.32154,3.32154 3.4054,6.91816 0.22835,9.79335 -3.6308,3.28583 -165.51852,3.39268 -168.79979,0.11142 z"
       id="path146" />
  </g>
</svg>
