<?xml version="1.0" encoding="UTF-8"?>
<!DOCTYPE svg PUBLIC "-//W3C//DTD SVG 1.1//EN" "http://www.w3.org/Graphics/SVG/1.1/DTD/svg11.dtd">
<svg xmlns="http://www.w3.org/2000/svg" version="1.1" width="1227px" height="641px" style="shape-rendering:geometricPrecision; text-rendering:geometricPrecision; image-rendering:optimizeQuality; fill-rule:evenodd; clip-rule:evenodd" xmlns:xlink="http://www.w3.org/1999/xlink">
<g><path style="opacity:0.968" fill="#1b2927" d="M 525.5,-0.5 C 578.167,-0.5 630.833,-0.5 683.5,-0.5C 711.748,14.7492 717.748,36.2492 701.5,64C 705.827,67.4987 710.494,70.4987 715.5,73C 716.46,74.4194 717.293,75.9194 718,77.5C 719.146,85.1154 719.812,92.7821 720,100.5C 720.202,120.864 720.702,141.197 721.5,161.5C 858.155,163.064 994.821,163.897 1131.5,164C 1182.74,179.738 1214.41,213.571 1226.5,265.5C 1226.5,274.167 1226.5,282.833 1226.5,291.5C 1225.73,295.627 1224.06,299.46 1221.5,303C 1215.08,304.596 1211.25,302.096 1210,295.5C 1209.92,263.242 1199.92,234.576 1180,209.5C 1157.08,184.316 1128.58,174.15 1094.5,179C 970.165,178.167 845.832,178.333 721.5,179.5C 720.341,186.474 720.341,193.474 721.5,200.5C 856.503,201.004 991.503,201.837 1126.5,203C 1135.03,203.144 1143.36,204.478 1151.5,207C 1158.5,210.497 1165.16,214.497 1171.5,219C 1173.04,220.11 1173.7,221.61 1173.5,223.5C 1165.08,222.145 1156.74,220.311 1148.5,218C 1005.83,217.5 863.167,217.333 720.5,217.5C 720.513,296.503 720.013,375.503 719,454.5C 701.693,506.097 665.859,527.431 611.5,518.5C 591.119,518.717 570.786,517.883 550.5,516C 521.598,509.103 502.098,491.603 492,463.5C 490.592,459.943 489.592,456.276 489,452.5C 487.503,374.178 486.669,295.844 486.5,217.5C 349.163,217.136 211.829,217.636 74.5,219C 68.5668,220.368 62.5668,221.201 56.5,221.5C 56.3505,220.448 56.5172,219.448 57,218.5C 65.7433,211.377 75.5766,206.21 86.5,203C 206.833,202.667 327.167,202.333 447.5,202C 460.236,201.942 472.903,201.275 485.5,200C 486.641,161.219 487.807,122.386 489,83.5C 489.259,78.0426 491.426,73.5426 495.5,70C 499.475,68.7744 503.142,67.1078 506.5,65C 493.014,44.0079 495.014,24.6746 512.5,7C 516.896,4.47312 521.229,1.97312 525.5,-0.5 Z M 551.5,14.5 C 586.168,14.3333 620.835,14.5 655.5,15C 663.536,15.2765 671.536,15.9432 679.5,17C 694.389,25.9843 697.555,38.151 689,53.5C 685.16,58.5105 680.327,62.1772 674.5,64.5C 673.029,63.6195 672.196,62.2861 672,60.5C 671.281,49.7531 670.114,39.0865 668.5,28.5C 666.305,27.2309 664.139,27.2309 662,28.5C 660.93,39.4891 659.93,50.4891 659,61.5C 658.451,65.6174 656.784,66.2841 654,63.5C 652.669,52.8812 651.669,42.2146 651,31.5C 650.064,26.1721 647.397,25.1721 643,28.5C 642,40.1667 641,51.8333 640,63.5C 638.759,65.4206 637.259,65.754 635.5,64.5C 634.846,62.8849 634.346,61.2182 634,59.5C 633.903,48.7753 633.237,38.1086 632,27.5C 629.8,25.1693 627.8,25.1693 626,27.5C 625.667,29.1667 625.333,30.8333 625,32.5C 624.9,42.8918 624.233,53.2251 623,63.5C 621.604,65.5268 619.938,65.8602 618,64.5C 616.587,53.9005 615.587,43.2339 615,32.5C 614.192,27.0953 611.525,25.7619 607,28.5C 605.847,39.4633 605.181,50.4633 605,61.5C 603.436,66.4592 601.103,66.7925 598,62.5C 597.884,51.1184 597.217,39.7851 596,28.5C 592.69,24.1637 590.023,24.497 588,29.5C 587.696,40.1912 587.029,50.8578 586,61.5C 584,66.8333 582,66.8333 580,61.5C 579.166,50.1578 578.333,38.8244 577.5,27.5C 575.473,27.3379 573.473,27.5045 571.5,28C 570.874,28.7504 570.374,29.5838 570,30.5C 568.955,41.8267 568.122,53.1601 567.5,64.5C 565.833,64.5 564.167,64.5 562.5,64.5C 561.855,53.1677 561.021,41.8343 560,30.5C 557.139,25.3678 554.472,25.3678 552,30.5C 550.895,42.1416 550.395,53.8083 550.5,65.5C 548.208,65.7564 546.041,65.4231 544,64.5C 542.905,52.1754 542.072,39.842 541.5,27.5C 538.173,26.0708 535.673,27.0708 534,30.5C 532.802,40.4506 532.135,50.4506 532,60.5C 531.804,62.2861 530.971,63.6195 529.5,64.5C 513.365,53.9762 509.865,40.3095 519,23.5C 521.264,20.5665 524.098,18.3999 527.5,17C 535.644,16.1061 543.644,15.2728 551.5,14.5 Z M 511.5,81.5 C 575.5,81.5 639.5,81.5 703.5,81.5C 703.675,97.1825 703.342,112.849 702.5,128.5C 663.532,129.98 624.532,130.647 585.5,130.5C 558.467,130.64 531.467,130.14 504.5,129C 502.019,114.249 501.852,99.4155 504,84.5C 506.334,82.98 508.834,81.98 511.5,81.5 Z M 628.5,158.5 C 651.822,159.235 675.155,159.735 698.5,160C 700.715,160.17 702.715,160.837 704.5,162C 692.466,163.148 680.632,164.648 669,166.5C 667.039,233.806 665.705,301.14 665,368.5C 664.666,380.52 663.999,392.52 663,404.5C 659.235,420.936 650.068,433.436 635.5,442C 610.026,455.391 585.359,454.058 561.5,438C 552.531,430.701 546.364,421.535 543,410.5C 540.865,329.518 540.032,248.518 540.5,167.5C 529.841,166.928 519.175,166.428 508.5,166C 506.109,165.713 503.776,165.213 501.5,164.5C 500.614,163.675 500.281,162.675 500.5,161.5C 543.301,160.029 585.968,159.029 628.5,158.5 Z M 510.5,177.5 C 520.87,177.702 524.37,182.702 521,192.5C 520,193.5 519,194.5 518,195.5C 516.496,270.16 516.163,344.827 517,419.5C 521.437,423.79 522.77,428.79 521,434.5C 518.819,437.344 516.653,440.178 514.5,443C 515.709,455.63 519.875,467.13 527,477.5C 531.333,482.5 535.667,487.5 540,492.5C 540.667,493.167 540.667,493.833 540,494.5C 519.875,482.263 509.541,464.263 509,440.5C 506.904,436.586 505.07,432.586 503.5,428.5C 504.533,424.771 506.366,421.437 509,418.5C 509.667,348.5 509.667,278.5 509,208.5C 508.667,204.5 508.333,200.5 508,196.5C 502.649,189.128 503.482,182.795 510.5,177.5 Z"/></g>
<g><path style="opacity:0.957" fill="#1c2a28" d="M 290.5,120.5 C 342.834,120.333 395.168,120.5 447.5,121C 454.932,121.748 457.432,125.581 455,132.5C 454.25,133.126 453.416,133.626 452.5,134C 396.499,137.313 340.499,137.313 284.5,134C 280.698,126.777 282.698,122.277 290.5,120.5 Z"/></g>
<g><path style="opacity:0.95" fill="#1c2928" d="M 768.5,120.5 C 820.501,120.333 872.501,120.5 924.5,121C 938.834,120.773 941.167,125.773 931.5,136C 875.827,136.761 820.16,136.428 764.5,135C 755.979,135.455 753.145,131.622 756,123.5C 760.173,122.104 764.339,121.104 768.5,120.5 Z"/></g>
<g><path style="opacity:0.96" fill="#1c2927" d="M -0.5,297.5 C -0.5,289.833 -0.5,282.167 -0.5,274.5C 6.32475,215.839 38.3248,179.006 95.5,164C 215.169,163.519 334.836,163.186 454.5,163C 458.253,167.265 459.253,172.098 457.5,177.5C 336.163,177.936 214.83,178.769 93.5,180C 55.9302,191.903 31.4302,216.737 20,254.5C 16.5537,269.302 14.5537,284.302 14,299.5C 11.0546,303.758 7.22127,304.591 2.5,302C 1.21886,300.591 0.218865,299.091 -0.5,297.5 Z"/></g>
<g><path style="opacity:0.968" fill="#1b2927" d="M 1017.5,223.5 C 1048.97,224.474 1065.8,240.474 1068,271.5C 1069.31,288.444 1069.31,305.444 1068,322.5C 1067.67,327.146 1066.34,331.479 1064,335.5C 1060.47,339.397 1057.3,343.564 1054.5,348C 1060.2,352.363 1064.37,357.863 1067,364.5C 1068.43,384.46 1068.93,404.46 1068.5,424.5C 1062.24,424.81 1056.08,424.476 1050,423.5C 1049.79,408.143 1049.12,392.81 1048,377.5C 1045.95,367.47 1039.95,363.804 1030,366.5C 1021.6,364.075 1013.1,363.908 1004.5,366C 1003.3,366.903 1002.47,368.069 1002,369.5C 1001.5,387.83 1001.33,406.164 1001.5,424.5C 995.167,424.5 988.833,424.5 982.5,424.5C 983.13,403.54 982.463,382.706 980.5,362C 980.862,360.775 981.362,359.609 982,358.5C 982.333,320.167 982.667,281.833 983,243.5C 991.623,231.775 1003.12,225.108 1017.5,223.5 Z M 1016.5,243.5 C 1021.27,243.191 1025.93,243.691 1030.5,245C 1033.67,249.5 1037.5,253.333 1042,256.5C 1045.13,261.419 1047.13,266.752 1048,272.5C 1050.2,289.22 1049.86,305.887 1047,322.5C 1044.93,334.235 1038.1,341.402 1026.5,344C 1019.54,345.331 1012.54,345.664 1005.5,345C 1003.98,343.782 1002.81,342.282 1002,340.5C 1001.53,311.383 1001.36,282.383 1001.5,253.5C 1002.48,252.019 1003.65,250.685 1005,249.5C 1006.34,250.765 1007.84,251.265 1009.5,251C 1008.67,250.085 1007.67,249.419 1006.5,249C 1009.02,247.851 1011.68,247.018 1014.5,246.5C 1015.43,245.643 1016.09,244.643 1016.5,243.5 Z"/></g>
<g><path style="opacity:0.96" fill="#1b2927" d="M 101.5,224.5 C 118.568,223.079 131.402,229.746 140,244.5C 143.532,251.095 145.865,258.095 147,265.5C 148.332,278.796 148.832,292.129 148.5,305.5C 141.833,305.5 135.167,305.5 128.5,305.5C 128.667,293.829 128.5,282.162 128,270.5C 128.464,255.792 121.297,247.792 106.5,246.5C 99.1641,248.249 92.9974,251.916 88,257.5C 87.3333,272.167 87.3333,286.833 88,301.5C 90.3252,306.836 93.8252,311.336 98.5,315C 115.222,326.884 131.222,339.717 146.5,353.5C 149.32,370.345 148.486,387.011 144,403.5C 137.971,418.182 126.971,425.848 111,426.5C 80.6333,425.306 66.1333,409.639 67.5,379.5C 73.8333,379.5 80.1667,379.5 86.5,379.5C 86.5527,387.489 88.7194,394.822 93,401.5C 104.178,410.285 114.178,408.952 123,397.5C 125.66,393.186 127.327,388.519 128,383.5C 128.832,375.479 128.665,367.479 127.5,359.5C 109.417,347.583 91.7504,335.083 74.5,322C 70.6763,317.845 68.1763,313.012 67,307.5C 66.3333,295.5 66.3333,283.5 67,271.5C 68.4066,255.186 75.24,241.686 87.5,231C 91.8772,227.975 96.5439,225.808 101.5,224.5 Z"/></g>
<g><path style="opacity:0.967" fill="#1b2927" d="M 906.5,225.5 C 929.234,224.774 945.067,234.774 954,255.5C 954.5,310.832 954.667,366.166 954.5,421.5C 948.5,421.5 942.5,421.5 936.5,421.5C 935.723,404.191 935.223,386.858 935,369.5C 934.529,367.754 933.862,366.087 933,364.5C 929.147,362.329 924.98,361.329 920.5,361.5C 909.183,362.357 897.85,362.69 886.5,362.5C 886.556,381.034 885.89,399.534 884.5,418C 884.245,419.326 883.578,420.326 882.5,421C 877.833,421.667 873.167,421.667 868.5,421C 867.267,419.302 866.6,417.302 866.5,415C 865.423,360.81 866.256,306.644 869,252.5C 873.08,242.086 880.246,234.586 890.5,230C 895.821,227.941 901.155,226.441 906.5,225.5 Z M 903.5,245.5 C 913.984,243.828 922.817,246.828 930,254.5C 931.439,256.275 932.439,258.275 933,260.5C 935.88,287.723 936.047,314.889 933.5,342C 917.956,343.682 902.456,343.849 887,342.5C 885.2,316.193 885.2,289.859 887,263.5C 889.583,254.753 895.083,248.753 903.5,245.5 Z"/></g>
<g><path style="opacity:0.964" fill="#1b2927" d="M 196.5,229.5 C 200.846,229.334 205.179,229.501 209.5,230C 210.126,230.75 210.626,231.584 211,232.5C 211.927,257.286 212.927,281.952 214,306.5C 223.796,282.12 233.796,257.787 244,233.5C 245.214,231.951 246.714,230.785 248.5,230C 253.751,229.196 258.918,229.363 264,230.5C 264.401,234.316 263.734,237.983 262,241.5C 249.782,270.487 238.949,299.987 229.5,330C 238.352,357.201 248.185,384.035 259,410.5C 260.975,414.963 261.808,419.629 261.5,424.5C 254.578,424.812 247.744,424.479 241,423.5C 232.81,401.46 223.81,379.793 214,358.5C 212.697,366.67 212.03,375.003 212,383.5C 211.5,397.163 211.333,410.829 211.5,424.5C 205.04,425.097 198.874,424.43 193,422.5C 191.698,362.171 191.365,301.838 192,241.5C 192.053,236.828 193.553,232.828 196.5,229.5 Z"/></g>
<g><path style="opacity:0.954" fill="#1b2927" d="M 557.5,229.5 C 581.761,228.027 596.595,239.027 602,262.5C 602.667,266.167 602.667,269.833 602,273.5C 600.951,274.517 599.784,274.684 598.5,274C 589.203,268.672 579.87,263.338 570.5,258C 564.14,252.98 559.307,246.813 556,239.5C 555.037,235.851 555.537,232.518 557.5,229.5 Z"/></g>
<g><path style="opacity:0.956" fill="#1b2927" d="M 643.5,229.5 C 646.833,229.5 650.167,229.5 653.5,229.5C 653.231,240.872 648.564,250.038 639.5,257C 628.133,263.043 617.3,269.876 607,277.5C 605.313,266.79 606.98,256.457 612,246.5C 620.458,237.021 630.958,231.355 643.5,229.5 Z"/></g>
<g><path style="opacity:0.961" fill="#1b2927" d="M 793.5,229.5 C 814.656,227.318 829.156,235.985 837,255.5C 838.3,262.771 838.8,270.104 838.5,277.5C 831.833,277.5 825.167,277.5 818.5,277.5C 819.463,265.797 815.797,255.964 807.5,248C 795.796,245.68 788.963,250.513 787,262.5C 785.472,300.16 785.472,337.827 787,375.5C 787.277,383.536 787.943,391.536 789,399.5C 794.576,407.347 801.41,408.513 809.5,403C 815.916,396.93 818.916,389.43 818.5,380.5C 824.833,380.5 831.167,380.5 837.5,380.5C 839.748,402.2 830.748,416.7 810.5,424C 789.121,427.399 774.288,419.233 766,399.5C 765.452,350.469 766.119,301.469 768,252.5C 772.708,240.573 781.208,232.906 793.5,229.5 Z"/></g>
<g><path style="opacity:0.989" fill="#1b2a27" d="M 305.5,230.5 C 310.833,230.5 316.167,230.5 321.5,230.5C 321.526,295.37 321.526,360.37 321.5,425.5C 315.5,425.5 309.5,425.5 303.5,425.5C 302.544,360.842 302.211,296.176 302.5,231.5C 303.791,231.737 304.791,231.404 305.5,230.5 Z"/></g>
<g><path style="opacity:0.953" fill="#1b2a27" d="M 368.5,230.5 C 373.875,230.172 379.208,230.505 384.5,231.5C 403.547,276.597 422.881,321.597 442.5,366.5C 443.5,321.505 443.833,276.505 443.5,231.5C 449.789,230.628 456.122,230.295 462.5,230.5C 462.624,288.538 462.624,346.705 462.5,405C 462.282,409.835 462.949,414.502 464.5,419C 462.997,420.921 462.331,423.088 462.5,425.5C 457.152,425.041 451.985,425.708 447,427.5C 445.233,426.66 443.899,425.327 443,423.5C 423.134,379.097 403.8,334.43 385,289.5C 384.939,334.842 384.773,380.175 384.5,425.5C 378.5,425.5 372.5,425.5 366.5,425.5C 365.874,363.98 365.208,302.48 364.5,241C 365.367,237.895 365.701,234.728 365.5,231.5C 366.791,231.737 367.791,231.404 368.5,230.5 Z"/></g>
<g><path style="opacity:0.01" fill="#1b2928" d="M 1061.5,231.5 C 1064.5,231.988 1065.67,233.655 1065,236.5C 1063.2,235.211 1062.03,233.544 1061.5,231.5 Z"/></g>
<g><path style="opacity:0.01" fill="#1b2928" d="M 950.5,233.5 C 953.503,233.988 954.669,235.655 954,238.5C 952.198,237.211 951.031,235.544 950.5,233.5 Z"/></g>
<g><path style="opacity:0.968" fill="#1c2927" d="M 1082.5,235.5 C 1105.83,235.5 1129.17,235.5 1152.5,235.5C 1152.5,241.833 1152.5,248.167 1152.5,254.5C 1135.83,254.575 1119.16,254.909 1102.5,255.5C 1102.5,274.833 1102.5,294.167 1102.5,313.5C 1118.17,313.661 1133.84,313.994 1149.5,314.5C 1149.5,320.167 1149.5,325.833 1149.5,331.5C 1133.51,332.1 1117.51,332.433 1101.5,332.5C 1101.5,356.5 1101.5,380.5 1101.5,404.5C 1118.16,405.185 1134.83,405.851 1151.5,406.5C 1151.81,412.093 1151.47,417.593 1150.5,423C 1128.17,423.5 1105.84,423.667 1083.5,423.5C 1083.33,360.832 1083,298.166 1082.5,235.5 Z"/></g>
<g><path style="opacity:0.01" fill="#1b2b28" d="M 971.5,238.5 C 972.848,239.527 973.348,240.86 973,242.5C 971.812,241.437 971.312,240.103 971.5,238.5 Z"/></g>
<g><path style="opacity:0.004" fill="#1c2928" d="M 1023.5,246.5 C 1024.92,246.709 1026.26,247.209 1027.5,248C 1025.54,248.844 1024.2,248.344 1023.5,246.5 Z"/></g>
<g><path style="opacity:0.031" fill="#1b2a27" d="M 1026.5,251.5 C 1033.42,252.516 1035.42,256.016 1032.5,262C 1031.22,262.684 1030.05,262.517 1029,261.5C 1026.57,258.383 1025.74,255.05 1026.5,251.5 Z"/></g>
<g><path style="opacity:0.018" fill="#1c2a28" d="M 1018.5,271.5 C 1019.19,270.226 1020.02,270.226 1021,271.5C 1021.67,279.833 1021.67,288.167 1021,296.5C 1020.78,287.956 1019.95,279.623 1018.5,271.5 Z"/></g>
<g><path style="opacity:0.952" fill="#1b2927" d="M 645.5,271.5 C 648.187,271.336 650.854,271.503 653.5,272C 653.228,284.537 647.895,294.537 637.5,302C 626.998,307.415 616.998,313.581 607.5,320.5C 606.006,308.834 608.172,297.834 614,287.5C 622.868,278.816 633.368,273.483 645.5,271.5 Z"/></g>
<g><path style="opacity:0.951" fill="#1b2927" d="M 558.5,272.5 C 588.772,271.438 603.438,286.105 602.5,316.5C 599.401,316.908 597.067,315.741 595.5,313C 584.771,309.472 575.105,304.138 566.5,297C 562.134,292.439 558.634,287.272 556,281.5C 554.93,277.858 555.764,274.858 558.5,272.5 Z"/></g>
<g><path style="opacity:0.017" fill="#1b2a27" d="M 1027.5,297.5 C 1029.72,298.203 1031.55,299.536 1033,301.5C 1033,306.5 1031,307.5 1027,304.5C 1026.44,302.115 1026.61,299.782 1027.5,297.5 Z"/></g>
<g><path style="opacity:0.049" fill="#1b2424" d="M 971.5,259.5 C 972.663,282.663 972.83,305.996 972,329.5C 971.5,306.169 971.333,282.836 971.5,259.5 Z"/></g>
<g><path style="opacity:0.009" fill="#1b2a27" d="M 1020.5,329.5 C 1022.61,330.987 1024.27,332.987 1025.5,335.5C 1023.98,337.283 1021.98,337.949 1019.5,337.5C 1019.58,334.794 1019.91,332.127 1020.5,329.5 Z"/></g>
<g><path style="opacity:0.954" fill="#1b2927" d="M -0.5,374.5 C -0.5,364.833 -0.5,355.167 -0.5,345.5C 1.60069,339.037 5.60069,337.37 11.5,340.5C 12.6094,342.385 13.4427,344.385 14,346.5C 14.3041,368.34 19.3041,389.007 29,408.5C 47.7662,437.803 74.5995,452.97 109.5,454C 219.163,455.221 328.83,456.221 438.5,457C 447.167,457.333 455.833,457.667 464.5,458C 466.028,459.648 466.695,461.648 466.5,464C 466.695,466.352 466.028,468.352 464.5,470C 459.833,470.333 455.167,470.667 450.5,471C 349.167,471.667 247.833,471.667 146.5,471C 80.7615,479.555 33.2615,454.388 4,395.5C 2.26914,388.41 0.769143,381.41 -0.5,374.5 Z"/></g>
<g><path style="opacity:0.941" fill="#1b2927" d="M 1214.5,338.5 C 1218.68,337.704 1221.85,339.037 1224,342.5C 1229.49,388.047 1213.65,424.214 1176.5,451C 1162.95,459.969 1148.28,466.635 1132.5,471C 1013.5,471.667 894.5,471.667 775.5,471C 765.5,470.667 755.5,470.333 745.5,470C 742.617,465.731 742.95,461.731 746.5,458C 751.167,457.667 755.833,457.333 760.5,457C 873.498,456.081 986.498,455.415 1099.5,455C 1140.36,458.485 1172.19,443.319 1195,409.5C 1205.64,390.268 1210.64,369.601 1210,347.5C 1210.45,343.925 1211.95,340.925 1214.5,338.5 Z"/></g>
<g><path style="opacity:0.018" fill="#1b2a27" d="M 1027.5,389.5 C 1031.13,389.157 1032.8,390.823 1032.5,394.5C 1032.24,398.34 1030.91,401.674 1028.5,404.5C 1027.69,404.192 1027.03,403.692 1026.5,403C 1027.47,398.599 1027.8,394.099 1027.5,389.5 Z"/></g>
<g><path style="opacity:0.035" fill="#1b1c1c" d="M 971.5,377.5 C 972.661,392.661 972.828,407.994 972,423.5C 971.5,408.17 971.333,392.837 971.5,377.5 Z"/></g>
<g><path style="opacity:0.027" fill="#1b2a27" d="M 1028.5,409.5 C 1031.54,409.406 1033.21,410.906 1033.5,414C 1031.51,416.774 1028.84,417.774 1025.5,417C 1023.85,413.471 1024.85,410.971 1028.5,409.5 Z"/></g>
<g><path style="opacity:0.96" fill="#1c2927" d="M 1213.5,433.5 C 1214.69,433.97 1215.36,434.97 1215.5,436.5C 1205,470.503 1183,493.669 1149.5,506C 1142.56,508.203 1135.56,510.203 1128.5,512C 994.5,512.667 860.5,512.667 726.5,512C 722.551,512.146 720.551,510.312 720.5,506.5C 720.265,501.973 722.265,499.14 726.5,498C 735.796,496.891 745.13,496.224 754.5,496C 867.499,495.228 980.499,494.562 1093.5,494C 1145.49,496.839 1185.49,476.672 1213.5,433.5 Z"/></g>
<g><path style="opacity:0.957" fill="#1b2927" d="M 9.5,436.5 C 10.552,436.351 11.552,436.517 12.5,437C 30.5016,459.009 52.5016,475.676 78.5,487C 85.9638,489.783 93.6305,491.783 101.5,493C 219.479,494.621 337.479,495.621 455.5,496C 462.5,496.333 469.5,496.667 476.5,497C 482.133,496.875 486.966,498.709 491,502.5C 493.012,508.075 491.179,510.909 485.5,511C 405.007,512.394 324.507,513.227 244,513.5C 194.135,513.729 144.301,512.896 94.5,511C 57.9242,503.495 31.0908,483.328 14,450.5C 11.9932,445.98 10.4932,441.313 9.5,436.5 Z"/></g>
<g><path style="opacity:0.959" fill="#1c2a28" d="M 309.5,540.5 C 514.833,541.646 720.167,541.813 925.5,541C 929.584,541.231 933.584,541.898 937.5,543C 939.101,546.596 938.768,549.929 936.5,553C 931.584,554.161 926.584,554.827 921.5,555C 815.797,554.674 710.131,556.174 604.5,559.5C 507.203,556.202 409.87,554.702 312.5,555C 308.145,554.89 303.978,554.057 300,552.5C 299.333,549.5 299.333,546.5 300,543.5C 303.134,542.091 306.301,541.091 309.5,540.5 Z"/></g>
<g><path style="opacity:0.932" fill="#1c2927" d="M 417.5,584.5 C 425.174,584.334 432.841,584.5 440.5,585C 445.612,585.633 449.445,588.133 452,592.5C 452.33,598.521 452.33,604.521 452,610.5C 455.54,614.363 457.707,618.863 458.5,624C 457.806,629.037 455.14,632.704 450.5,635C 439.403,638.128 428.07,639.294 416.5,638.5C 416.448,620.491 416.781,602.491 417.5,584.5 Z M 433.5,595.5 C 440.886,595.671 442.886,598.837 439.5,605C 434.161,607.663 430.161,606.33 427.5,601C 428.771,598.223 430.771,596.389 433.5,595.5 Z M 434.5,615.5 C 438.793,615.652 442.626,616.986 446,619.5C 446.755,622.497 445.922,624.997 443.5,627C 438.58,628.25 433.58,628.75 428.5,628.5C 428.5,624.5 428.5,620.5 428.5,616.5C 430.735,616.795 432.735,616.461 434.5,615.5 Z"/></g>
<g><path style="opacity:0.916" fill="#1b2927" d="M 486.5,584.5 C 488.5,584.5 490.5,584.5 492.5,584.5C 493.309,602.488 493.643,620.488 493.5,638.5C 489.692,638.837 486.026,638.337 482.5,637C 479.692,619.236 481.025,601.736 486.5,584.5 Z"/></g>
<g><path style="opacity:0.938" fill="#1b2927" d="M 536.5,584.5 C 565.181,583.347 576.014,596.68 569,624.5C 559.923,638.637 547.423,642.803 531.5,637C 517.34,626.853 513.507,613.686 520,597.5C 524.166,591.35 529.666,587.017 536.5,584.5 Z M 541.5,595.5 C 552.556,595.89 558.89,601.557 560.5,612.5C 558.026,623.746 551.026,628.579 539.5,627C 529.709,622.294 526.543,614.794 530,604.5C 533.158,600.493 536.992,597.493 541.5,595.5 Z"/></g>
<g><path style="opacity:0.919" fill="#1b2927" d="M 589.5,584.5 C 602.167,584.5 614.833,584.5 627.5,584.5C 627.82,587.898 627.487,591.232 626.5,594.5C 622.895,595.49 619.228,596.156 615.5,596.5C 614.846,610.157 614.513,623.824 614.5,637.5C 610.865,638.114 607.198,638.448 603.5,638.5C 603.857,625.125 603.357,611.792 602,598.5C 601.097,597.299 599.931,596.465 598.5,596C 595.574,595.782 592.74,595.282 590,594.5C 589.502,591.183 589.335,587.85 589.5,584.5 Z"/></g>
<g><path style="opacity:0.93" fill="#1c2a28" d="M 650.5,584.5 C 662.5,584.5 674.5,584.5 686.5,584.5C 687.006,588.007 686.34,591.174 684.5,594C 677.299,595.687 669.965,596.521 662.5,596.5C 662.216,599.777 662.549,602.943 663.5,606C 668.761,607.217 674.094,608.217 679.5,609C 682.192,611.632 681.859,613.966 678.5,616C 673.444,616.856 668.444,617.856 663.5,619C 661.556,621.153 661.056,623.653 662,626.5C 670.044,628.07 678.21,628.737 686.5,628.5C 686.5,631.833 686.5,635.167 686.5,638.5C 674.469,638.749 662.469,638.416 650.5,637.5C 650.5,619.833 650.5,602.167 650.5,584.5 Z"/></g>
<g><path style="opacity:0.928" fill="#1b2927" d="M 726.5,584.5 C 734.503,583.708 742.169,584.875 749.5,588C 755.014,591.819 754.681,595.153 748.5,598C 743.401,598.571 738.401,598.071 733.5,596.5C 724.784,597.211 719.451,601.878 717.5,610.5C 721.114,625.606 730.281,630.606 745,625.5C 750.682,624.799 753.015,627.132 752,632.5C 744.038,638.108 735.205,639.942 725.5,638C 709.278,630.377 703.778,617.877 709,600.5C 712.503,592.492 718.336,587.159 726.5,584.5 Z"/></g>
<g><path style="opacity:0.926" fill="#1b2927" d="M 777.5,583.5 C 780.764,584.324 784.098,584.658 787.5,584.5C 787.338,590.555 787.838,596.555 789,602.5C 791.653,604.941 794.82,605.941 798.5,605.5C 801.87,605.626 805.037,604.96 808,603.5C 809.732,597.313 810.565,590.98 810.5,584.5C 813.579,584.74 816.579,584.407 819.5,583.5C 820.482,601.828 820.482,620.162 819.5,638.5C 816.763,639.213 814.096,639.213 811.5,638.5C 810.092,631.539 808.925,624.539 808,617.5C 802.604,615.046 797.104,614.879 791.5,617C 790.667,617.833 789.833,618.667 789,619.5C 788.5,625.825 788.334,632.158 788.5,638.5C 784.833,638.5 781.167,638.5 777.5,638.5C 777.5,620.167 777.5,601.833 777.5,583.5 Z"/></g>
<g><path style="opacity:0.944" fill="#1c2927" d="M 311.5,593.5 C 324.643,593.09 337.643,594.257 350.5,597C 353.196,597.765 355.696,598.932 358,600.5C 359.091,605.098 357.257,607.931 352.5,609C 336.894,611.885 321.228,612.219 305.5,610C 297.496,606.623 296.496,601.956 302.5,596C 305.628,595.159 308.628,594.325 311.5,593.5 Z"/></g>
<g><path style="opacity:0.932" fill="#1c2927" d="M 878.5,594.5 C 892.201,594.189 905.868,594.689 919.5,596C 925.717,597.626 927.55,601.46 925,607.5C 923.829,608.893 922.329,609.727 920.5,610C 904.143,610.783 887.81,610.45 871.5,609C 869.939,608.682 868.772,607.849 868,606.5C 867.107,603.084 867.607,599.917 869.5,597C 872.628,596.159 875.628,595.325 878.5,594.5 Z"/></g>
</svg>
