<svg xmlns="http://www.w3.org/2000/svg" version="1.1" xmlns:xlink="http://www.w3.org/1999/xlink" xmlns:svgjs="http://svgjs.dev/svgjs" width="2000" height="469" viewBox="0 0 2000 469"><g transform="matrix(1,0,0,1,-1.2121212121212466,-2.0592800761232297)"><svg viewBox="0 0 396 93" data-background-color="#ffffff" preserveAspectRatio="xMidYMid meet" height="469" width="2000" xmlns="http://www.w3.org/2000/svg" xmlns:xlink="http://www.w3.org/1999/xlink"><g id="tight-bounds" transform="matrix(1,0,0,1,0.2400000000000091,0.40834338396473413)"><svg viewBox="0 0 395.52 92.1833132320705" height="92.1833132320705" width="395.52"><g><svg viewBox="0 0 395.52 92.1833132320705" height="92.1833132320705" width="395.52"><g><svg viewBox="0 0 395.52 92.1833132320705" height="92.1833132320705" width="395.52"><g><svg viewBox="0 0 395.52 92.1833132320705" height="92.1833132320705" width="395.52"><g><svg viewBox="0 0 395.52 92.1833132320705" height="92.1833132320705" width="395.52"><g id="textblocktransform"><svg viewBox="0 0 395.52 92.1833132320705" height="92.1833132320705" width="395.52" id="textblock"><g><svg viewBox="0 0 395.52 59.24088105726873" height="59.24088105726873" width="395.52"><g transform="matrix(1,0,0,1,0,0)"><svg width="395.52" viewBox="2.4 -35.35 238.32999999999998 35.7" height="59.24088105726873" data-palette-color="#2f2f2f"><path d="M2.4-7.55L6.95-9.25Q7.25-7.85 8.18-6.65 9.1-5.45 10.7-4.7 12.3-3.95 14.65-3.95L14.65-3.95Q18.15-3.95 19.83-5.58 21.5-7.2 21.5-9.4L21.5-9.4Q21.5-11.2 20.48-12.38 19.45-13.55 17.68-14.38 15.9-15.2 13.6-15.85L13.6-15.85Q11.6-16.45 9.68-17.13 7.75-17.8 6.2-18.82 4.65-19.85 3.75-21.48 2.85-23.1 2.85-25.55L2.85-25.55Q2.85-28.6 4.3-30.8 5.75-33 8.38-34.18 11-35.35 14.45-35.35L14.45-35.35Q17.35-35.35 19.65-34.52 21.95-33.7 23.53-32.18 25.1-30.65 25.85-28.5L25.85-28.5 21.3-26.85Q21-27.95 20.05-28.93 19.1-29.9 17.65-30.5 16.2-31.1 14.4-31.1L14.4-31.1Q12.55-31.15 11.08-30.53 9.6-29.9 8.72-28.75 7.85-27.6 7.85-26L7.85-26Q7.85-24.25 8.85-23.25 9.85-22.25 11.53-21.6 13.2-20.95 15.2-20.35L15.2-20.35Q17.3-19.7 19.3-18.95 21.3-18.2 22.93-17.05 24.55-15.9 25.55-14.18 26.55-12.45 26.55-9.85L26.55-9.85Q26.55-7.05 25.25-4.75 23.95-2.45 21.33-1.05 18.7 0.35 14.75 0.35L14.75 0.35Q11.5 0.35 8.9-0.65 6.3-1.65 4.63-3.43 2.95-5.2 2.4-7.55L2.4-7.55ZM32.85 0L32.85-35 37.85-35 37.85-19.85 39.65-19.85 53.35-35 59.65-35 44.1-17.75 59.85 0 53.3 0 39.6-15.65 37.85-15.65 37.85 0 32.85 0ZM64.4 0L64.4-35 69.4-35 69.4 0 64.4 0ZM99.84-35L104.84-35 104.84 0 99.74 0 82.29-27.1 82.29 0 77.29 0 77.29-35 82.39-35 99.84-8 99.84-35ZM110.79-17.5L110.79-17.5Q110.79-21.45 112.14-24.73 113.49-28 115.89-30.38 118.29-32.75 121.47-34.05 124.64-35.35 128.34-35.35L128.34-35.35Q133.59-35.35 137.72-32.9 141.84-30.45 143.99-25.85L143.99-25.85 139.99-24.4Q138.79-26.75 136.94-28.2 135.09-29.65 132.89-30.35 130.69-31.05 128.44-31.05L128.44-31.05Q124.89-31.05 122.02-29.4 119.14-27.75 117.52-24.7 115.89-21.65 115.89-17.5L115.89-17.5Q115.89-13.4 117.52-10.35 119.14-7.3 122.02-5.63 124.89-3.95 128.44-3.95L128.44-3.95Q130.74-3.95 132.99-4.7 135.24-5.45 137.19-7.13 139.14-8.8 140.39-11.5L140.39-11.5 144.39-10.1Q142.14-4.8 137.94-2.23 133.74 0.35 128.34 0.35L128.34 0.35Q124.64 0.35 121.47-0.95 118.29-2.25 115.89-4.65 113.49-7.05 112.14-10.33 110.79-13.6 110.79-17.5ZM176.14 0L165.24-30.8 163.49-30.8 152.49 0 147.39 0 159.99-35 168.64-35 181.24 0 176.14 0ZM153.84-8.9L153.84-13.1 174.24-13.1 174.24-8.9 153.84-8.9ZM205.64-24.55L205.64-24.55Q205.64-27.4 203.94-29.1 202.24-30.8 198.53-30.8L198.53-30.8 190.53-30.8 190.53-18.35 198.59-18.35Q201.04-18.35 202.59-19.13 204.14-19.9 204.89-21.3 205.64-22.7 205.64-24.55ZM185.53-35L198.53-35Q202.69-35 205.36-33.58 208.04-32.15 209.36-29.8 210.69-27.45 210.69-24.55L210.69-24.55Q210.69-22.65 210.04-20.8 209.39-18.95 207.94-17.43 206.49-15.9 204.16-15.03 201.84-14.15 198.59-14.15L198.59-14.15 190.53-14.15 190.53 0 185.53 0 185.53-35ZM196.44-15.85L201.74-15.85 211.39 0 205.74 0 196.44-15.85ZM240.73-35L240.73-30.8 222.33-30.8 222.33-19.85 236.13-19.85 236.13-15.65 222.33-15.65 222.33-4.2 240.73-4.2 240.73 0 217.33 0 217.33-35 240.73-35Z" opacity="1" transform="matrix(1,0,0,1,0,0)" fill="#2f2f2f" class="wordmark-text-0" data-fill-palette-color="primary" id="text-0"></path></svg></g></svg></g><g transform="matrix(1,0,0,1,0,73.2262312937445)"><svg viewBox="0 0 395.52 18.957081938325995" height="18.957081938325995" width="395.52"><g transform="matrix(1,0,0,1,0,0)"><svg width="395.52" viewBox="4.65 -32.35 683.3000000000001 32.75" height="18.957081938325995" data-palette-color="#2f2f2f"><path d="M18.1-16.7Q24.9-15.35 24.9-8.95L24.9-8.95Q24.9-4.4 21.6-2.1 18.3 0.2 11.75 0.2L11.75 0.2Q7.35 0.2 4.7 0L4.7 0 4.65 0 4.9-9.65 4.65-32.05 13.55-32.1Q18.05-32.1 20.48-30.1 22.9-28.1 22.9-24.3L22.9-24.3Q22.9-21.6 21.65-19.65 20.4-17.7 18.1-16.7L18.1-16.7ZM18.8-23.85Q18.8-26.45 17.38-27.63 15.95-28.8 12.75-28.8L12.75-28.8 8.7-28.8 8.6-18.05 14.1-17.9Q18.8-19 18.8-23.85L18.8-23.85ZM12.35-3.15Q16.45-3.15 18.65-4.7 20.85-6.25 20.85-9.15L20.85-9.15Q20.85-14.05 14.7-14.75L14.7-14.75 8.55-14.7 8.5-10 8.65-3.3Q10.6-3.15 12.35-3.15L12.35-3.15ZM121.52-32.05L121.27-10 121.47 0 117.42 0 117.67-9.65 117.42-32.05 121.52-32.05ZM227.48-32.35Q234.08-32.35 237.61-28.3 241.13-24.25 241.13-16.65L241.13-16.65Q241.13-8.45 237.38-4.03 233.63 0.4 226.68 0.4L226.68 0.4Q220.18 0.4 216.66-3.8 213.13-8 213.13-15.75L213.13-15.75Q213.13-23.75 216.86-28.05 220.58-32.35 227.48-32.35L227.48-32.35ZM227.23-29.1Q217.23-29.1 217.23-16.2L217.23-16.2Q217.23-9.35 219.66-6.05 222.08-2.75 226.98-2.75L226.98-2.75Q236.98-2.75 236.98-15.9L236.98-15.9Q236.98-22.6 234.56-25.85 232.13-29.1 227.23-29.1L227.23-29.1ZM350.05-32.05L350.35-31.65 350.05-28.55 344.45-28.85 341.2-28.85 341.05-10 341.2 0 337.15 0 337.45-9.65 337.2-28.85 333.95-28.85 328.25-28.55 328-28.95 328.3-32.05 350.05-32.05ZM460.01-3.5L460.26-3.1 459.96 0 441.96 0 442.21-9.65 441.96-32.05 460.01-32.05 460.21-31.65 459.91-28.55 452.36-28.7 446.01-28.6 445.91-18.1 451.91-18 457.21-18.15 457.51-17.8 457.16-14.7 451.56-14.8 445.86-14.75 445.81-10 445.96-3.35 452.31-3.3 460.01-3.5ZM562.63-32.3Q567.68-32.3 571.38-29.9L571.38-29.9 570.58-26.25 570.13-26.15Q566.78-28.95 562.43-28.95L562.43-28.95Q557.68-28.95 555.13-25.68 552.58-22.4 552.58-16.1L552.58-16.1Q552.58-9.75 555.13-6.4 557.68-3.05 562.33-3.05L562.33-3.05Q564.53-3.05 566.7-3.85 568.88-4.65 570.68-6.1L570.68-6.1 571.18-5.85 570.83-2.05Q566.48 0.35 561.98 0.35L561.98 0.35Q555.53 0.35 551.98-3.83 548.43-8 548.43-15.75L548.43-15.75Q548.43-23.7 552.13-28 555.83-32.3 562.63-32.3L562.63-32.3ZM687.95-32.05L687.75-10 687.85 0 683.9 0 684.1-9.65 684.05-14.45 675.15-14.5 667-14.45 666.95-10 667.1 0 663.15 0 663.3-9.65 663.15-32.05 667.15-32.05 667-17.85 675.5-17.8 684.05-17.85 683.9-32.05 687.95-32.05Z" opacity="1" transform="matrix(1,0,0,1,0,0)" fill="#2f2f2f" class="slogan-text-1" data-fill-palette-color="secondary" id="text-1"></path></svg></g></svg></g></svg></g></svg></g><g></g></svg></g></svg></g></svg></g><defs></defs></svg><rect width="395.52" height="92.1833132320705" fill="none" stroke="none" visibility="hidden"></rect></g></svg></g></svg>